<svg xmlns="http://www.w3.org/2000/svg" width="648" height="378" viewBox="0 0 648 378">
<style>
  .entity-bg { fill: #fff; }
  .entity-header { fill: #e0e0e0; }
  .entity-border { fill: none; stroke: #333; stroke-width: 1.5; }
  .entity-name { font-family: monospace; font-size: 14px; font-weight: bold; }
  .column-text { font-family: monospace; font-size: 12px; }
  .pk { font-weight: bold; }
  .fk { font-style: italic; }
  .edge { stroke: #666; stroke-width: 1.5; fill: none; }
  .edge-label-bg { fill: rgba(245,245,245,0.85); }
  .edge-label { font-family: monospace; font-size: 14px; fill: #555; }
  .cardinality-bg { fill: rgba(240,240,240,0.7); }
  .cardinality { font-family: monospace; font-size: 15px; font-weight: bold; fill: #333; }
</style>
<path class="edge" d="M 324 144 L 324 181 Q 324 189 316 189 L 252 189 Q 244 189 244 197 L 244 234" />
<rect class="entity-bg" x="40" y="40" width="568" height="104" rx="4" />
<rect class="entity-header" x="40" y="40" width="568" height="28" rx="4" />
<rect class="entity-header" x="40" y="64" width="568" height="4" />
<text class="entity-name" x="324" y="59" text-anchor="middle">VeryLongEntityNameThatMightCauseLayoutIssues</text>
<line x1="40" y1="68" x2="608" y2="68" stroke="#333" stroke-width="1" />
<text class="column-text pk" x="52" y="90">◆ id: int</text>
<text class="column-text" x="52" y="110">  this_is_a_very_long_column_name_that_tests_width_calculation: string</text>
<text class="column-text" x="52" y="130">  another_extremely_long_column_name_for_testing: decimal</text>
<rect class="entity-border" x="40" y="40" width="568" height="104" rx="4" />
<rect class="entity-bg" x="40" y="234" width="408" height="104" rx="4" />
<rect class="entity-header" x="40" y="234" width="408" height="28" rx="4" />
<rect class="entity-header" x="40" y="258" width="408" height="4" />
<text class="entity-name" x="244" y="253" text-anchor="middle">AnotherExtremelyLongEntityNameForTestingPurposes</text>
<line x1="40" y1="262" x2="448" y2="262" stroke="#333" stroke-width="1" />
<text class="column-text pk" x="52" y="284">◆ id: int</text>
<text class="column-text" x="52" y="304">  short: string</text>
<text class="column-text fk" x="52" y="324">  very_long_foreign_key_column_name: int</text>
<rect class="entity-border" x="40" y="234" width="408" height="104" rx="4" />
<rect class="cardinality-bg" x="317.5" y="146.0" width="13.0" height="19.0" rx="2" />
<text class="cardinality" x="324" y="155.5" text-anchor="middle" dominant-baseline="middle">1</text>
<rect class="cardinality-bg" x="237.5" y="213.0" width="13.0" height="19.0" rx="2" />
<text class="cardinality" x="244" y="222.5" text-anchor="middle" dominant-baseline="middle">*</text>
<rect class="edge-label-bg" x="159.2" y="179.0" width="249.6" height="20.0" rx="2" />
<text class="edge-label" x="284" y="189" text-anchor="middle" dominant-baseline="middle">has many with long label text</text>
</svg>
