<svg xmlns="http://www.w3.org/2000/svg" width="648" height="368" viewBox="0 0 648 368">
<style>
  .entity-bg { fill: #fff; }
  .entity-header { fill: #e0e0e0; }
  .entity-border { fill: none; stroke: #333; stroke-width: 1.5; }
  .entity-name { font-family: monospace; font-size: 14px; font-weight: bold; }
  .column-text { font-family: monospace; font-size: 12px; }
  .pk { font-weight: bold; }
  .fk { font-style: italic; }
  .edge { stroke: #666; stroke-width: 1.5; fill: none; }
  .edge-label { font-family: monospace; font-size: 12px; fill: #666; paint-order: stroke; stroke: rgba(255,255,255,0.85); stroke-width: 3px; }
  .cardinality { font-family: monospace; font-size: 15px; font-weight: bold; fill: #333; paint-order: stroke; stroke: rgba(255,255,255,0.85); stroke-width: 4px; }
</style>
<line class="edge" x1="324" y1="144" x2="244" y2="224" />
<rect class="entity-bg" x="40" y="40" width="568" height="104" rx="4" />
<rect class="entity-header" x="40" y="40" width="568" height="28" rx="4" />
<rect class="entity-header" x="40" y="64" width="568" height="4" />
<text class="entity-name" x="324" y="59" text-anchor="middle">VeryLongEntityNameThatMightCauseLayoutIssues</text>
<line x1="40" y1="68" x2="608" y2="68" stroke="#333" stroke-width="1" />
<text class="column-text pk" x="52" y="90">◆ id: int</text>
<text class="column-text" x="52" y="110">  this_is_a_very_long_column_name_that_tests_width_calculation: string</text>
<text class="column-text" x="52" y="130">  another_extremely_long_column_name_for_testing: decimal</text>
<rect class="entity-border" x="40" y="40" width="568" height="104" rx="4" />
<rect class="entity-bg" x="40" y="224" width="408" height="104" rx="4" />
<rect class="entity-header" x="40" y="224" width="408" height="28" rx="4" />
<rect class="entity-header" x="40" y="248" width="408" height="4" />
<text class="entity-name" x="244" y="243" text-anchor="middle">AnotherExtremelyLongEntityNameForTestingPurposes</text>
<line x1="40" y1="252" x2="448" y2="252" stroke="#333" stroke-width="1" />
<text class="column-text pk" x="52" y="274">◆ id: int</text>
<text class="column-text" x="52" y="294">  short: string</text>
<text class="column-text fk" x="52" y="314">  very_long_foreign_key_column_name: int</text>
<rect class="entity-border" x="40" y="224" width="408" height="104" rx="4" />
<text class="cardinality" x="318.6966991411009" y="149.3033008588991" text-anchor="end" dominant-baseline="hanging">1</text>
<text class="cardinality" x="249.3033008588991" y="218.6966991411009" text-anchor="start" dominant-baseline="alphabetic">*</text>
<text class="edge-label" x="284" y="184" text-anchor="middle" dominant-baseline="middle">has many with long label text</text>
</svg>
