<svg xmlns="http://www.w3.org/2000/svg" width="216" height="984" viewBox="0 0 216 984">
<style>
  .entity-bg { fill: #fff; }
  .entity-header { fill: #e0e0e0; }
  .entity-border { fill: none; stroke: #333; stroke-width: 1.5; }
  .entity-name { font-family: monospace; font-size: 14px; font-weight: bold; }
  .column-text { font-family: monospace; font-size: 12px; }
  .pk { font-weight: bold; }
  .fk { font-style: italic; }
  .edge { stroke: #666; stroke-width: 1.5; fill: none; }
  .edge-label { font-family: monospace; font-size: 12px; fill: #666; paint-order: stroke; stroke: rgba(255,255,255,0.85); stroke-width: 3px; }
  .cardinality { font-family: monospace; font-size: 15px; font-weight: bold; fill: #333; paint-order: stroke; stroke: rgba(255,255,255,0.85); stroke-width: 4px; }
</style>
<line class="edge" x1="100" y1="124" x2="108" y2="204" />
<text class="cardinality" x="100.74627789265749" y="131.4627789265749" text-anchor="start" dominant-baseline="hanging">1</text>
<text class="cardinality" x="107.25372210734251" y="196.5372210734251" text-anchor="end" dominant-baseline="alphabetic">*</text>
<line class="edge" x1="108" y1="288" x2="108" y2="368" />
<text class="cardinality" x="108" y="295.5" text-anchor="start" dominant-baseline="hanging">1</text>
<text class="cardinality" x="108" y="360.5" text-anchor="end" dominant-baseline="alphabetic">*</text>
<line class="edge" x1="108" y1="452" x2="108" y2="532" />
<text class="cardinality" x="108" y="459.5" text-anchor="start" dominant-baseline="hanging">1</text>
<text class="cardinality" x="108" y="524.5" text-anchor="end" dominant-baseline="alphabetic">*</text>
<line class="edge" x1="108" y1="616" x2="108" y2="696" />
<text class="cardinality" x="108" y="623.5" text-anchor="start" dominant-baseline="hanging">1</text>
<text class="cardinality" x="108" y="688.5" text-anchor="end" dominant-baseline="alphabetic">*</text>
<line class="edge" x1="108" y1="780" x2="108" y2="860" />
<text class="cardinality" x="108" y="787.5" text-anchor="start" dominant-baseline="hanging">1</text>
<text class="cardinality" x="108" y="852.5" text-anchor="end" dominant-baseline="alphabetic">*</text>
<rect class="entity-bg" x="40" y="40" width="120" height="84" rx="4" />
<rect class="entity-header" x="40" y="40" width="120" height="28" rx="4" />
<rect class="entity-header" x="40" y="64" width="120" height="4" />
<text class="entity-name" x="100" y="59" text-anchor="middle">Level0</text>
<line x1="40" y1="68" x2="160" y2="68" stroke="#333" stroke-width="1" />
<text class="column-text pk" x="52" y="90">◆ id: int</text>
<text class="column-text" x="52" y="110">  name: string</text>
<rect class="entity-border" x="40" y="40" width="120" height="84" rx="4" />
<rect class="entity-bg" x="40" y="204" width="136" height="84" rx="4" />
<rect class="entity-header" x="40" y="204" width="136" height="28" rx="4" />
<rect class="entity-header" x="40" y="228" width="136" height="4" />
<text class="entity-name" x="108" y="223" text-anchor="middle">Level1</text>
<line x1="40" y1="232" x2="176" y2="232" stroke="#333" stroke-width="1" />
<text class="column-text pk" x="52" y="254">◆ id: int</text>
<text class="column-text fk" x="52" y="274">  parent_id: int</text>
<rect class="entity-border" x="40" y="204" width="136" height="84" rx="4" />
<rect class="entity-bg" x="40" y="368" width="136" height="84" rx="4" />
<rect class="entity-header" x="40" y="368" width="136" height="28" rx="4" />
<rect class="entity-header" x="40" y="392" width="136" height="4" />
<text class="entity-name" x="108" y="387" text-anchor="middle">Level2</text>
<line x1="40" y1="396" x2="176" y2="396" stroke="#333" stroke-width="1" />
<text class="column-text pk" x="52" y="418">◆ id: int</text>
<text class="column-text fk" x="52" y="438">  parent_id: int</text>
<rect class="entity-border" x="40" y="368" width="136" height="84" rx="4" />
<rect class="entity-bg" x="40" y="532" width="136" height="84" rx="4" />
<rect class="entity-header" x="40" y="532" width="136" height="28" rx="4" />
<rect class="entity-header" x="40" y="556" width="136" height="4" />
<text class="entity-name" x="108" y="551" text-anchor="middle">Level3</text>
<line x1="40" y1="560" x2="176" y2="560" stroke="#333" stroke-width="1" />
<text class="column-text pk" x="52" y="582">◆ id: int</text>
<text class="column-text fk" x="52" y="602">  parent_id: int</text>
<rect class="entity-border" x="40" y="532" width="136" height="84" rx="4" />
<rect class="entity-bg" x="40" y="696" width="136" height="84" rx="4" />
<rect class="entity-header" x="40" y="696" width="136" height="28" rx="4" />
<rect class="entity-header" x="40" y="720" width="136" height="4" />
<text class="entity-name" x="108" y="715" text-anchor="middle">Level4</text>
<line x1="40" y1="724" x2="176" y2="724" stroke="#333" stroke-width="1" />
<text class="column-text pk" x="52" y="746">◆ id: int</text>
<text class="column-text fk" x="52" y="766">  parent_id: int</text>
<rect class="entity-border" x="40" y="696" width="136" height="84" rx="4" />
<rect class="entity-bg" x="40" y="860" width="136" height="84" rx="4" />
<rect class="entity-header" x="40" y="860" width="136" height="28" rx="4" />
<rect class="entity-header" x="40" y="884" width="136" height="4" />
<text class="entity-name" x="108" y="879" text-anchor="middle">Level5</text>
<line x1="40" y1="888" x2="176" y2="888" stroke="#333" stroke-width="1" />
<text class="column-text pk" x="52" y="910">◆ id: int</text>
<text class="column-text fk" x="52" y="930">  parent_id: int</text>
<rect class="entity-border" x="40" y="860" width="136" height="84" rx="4" />
</svg>
