<svg xmlns="http://www.w3.org/2000/svg" width="216" height="1034" viewBox="0 0 216 1034">
<style>
  .entity-bg { fill: #fff; }
  .entity-header { fill: #e0e0e0; }
  .entity-border { fill: none; stroke: #333; stroke-width: 1.5; }
  .entity-name { font-family: monospace; font-size: 14px; font-weight: bold; }
  .column-text { font-family: monospace; font-size: 12px; }
  .pk { font-weight: bold; }
  .fk { font-style: italic; }
  .edge { stroke: #666; stroke-width: 1.5; fill: none; }
  .edge-label-bg { fill: rgba(245,245,245,0.85); }
  .edge-label { font-family: monospace; font-size: 14px; fill: #555; }
  .cardinality-bg { fill: rgba(240,240,240,0.7); }
  .cardinality { font-family: monospace; font-size: 15px; font-weight: bold; fill: #333; }
</style>
<path class="edge" d="M 100 124 L 100 165 Q 100 169 104 169 L 104 169 Q 108 169 108 173 L 108 214" />
<path class="edge" d="M 108 298 L 108 343 L 108 343 L 108 388" />
<path class="edge" d="M 108 472 L 108 517 L 108 517 L 108 562" />
<path class="edge" d="M 108 646 L 108 691 L 108 691 L 108 736" />
<path class="edge" d="M 108 820 L 108 865 L 108 865 L 108 910" />
<rect class="entity-bg" x="40" y="40" width="120" height="84" rx="4" />
<rect class="entity-header" x="40" y="40" width="120" height="28" rx="4" />
<rect class="entity-header" x="40" y="64" width="120" height="4" />
<text class="entity-name" x="100" y="59" text-anchor="middle">Level0</text>
<line x1="40" y1="68" x2="160" y2="68" stroke="#333" stroke-width="1" />
<text class="column-text pk" x="52" y="90">◆ id: int</text>
<text class="column-text" x="52" y="110">  name: string</text>
<rect class="entity-border" x="40" y="40" width="120" height="84" rx="4" />
<rect class="entity-bg" x="40" y="214" width="136" height="84" rx="4" />
<rect class="entity-header" x="40" y="214" width="136" height="28" rx="4" />
<rect class="entity-header" x="40" y="238" width="136" height="4" />
<text class="entity-name" x="108" y="233" text-anchor="middle">Level1</text>
<line x1="40" y1="242" x2="176" y2="242" stroke="#333" stroke-width="1" />
<text class="column-text pk" x="52" y="264">◆ id: int</text>
<text class="column-text fk" x="52" y="284">  parent_id: int</text>
<rect class="entity-border" x="40" y="214" width="136" height="84" rx="4" />
<rect class="entity-bg" x="40" y="388" width="136" height="84" rx="4" />
<rect class="entity-header" x="40" y="388" width="136" height="28" rx="4" />
<rect class="entity-header" x="40" y="412" width="136" height="4" />
<text class="entity-name" x="108" y="407" text-anchor="middle">Level2</text>
<line x1="40" y1="416" x2="176" y2="416" stroke="#333" stroke-width="1" />
<text class="column-text pk" x="52" y="438">◆ id: int</text>
<text class="column-text fk" x="52" y="458">  parent_id: int</text>
<rect class="entity-border" x="40" y="388" width="136" height="84" rx="4" />
<rect class="entity-bg" x="40" y="562" width="136" height="84" rx="4" />
<rect class="entity-header" x="40" y="562" width="136" height="28" rx="4" />
<rect class="entity-header" x="40" y="586" width="136" height="4" />
<text class="entity-name" x="108" y="581" text-anchor="middle">Level3</text>
<line x1="40" y1="590" x2="176" y2="590" stroke="#333" stroke-width="1" />
<text class="column-text pk" x="52" y="612">◆ id: int</text>
<text class="column-text fk" x="52" y="632">  parent_id: int</text>
<rect class="entity-border" x="40" y="562" width="136" height="84" rx="4" />
<rect class="entity-bg" x="40" y="736" width="136" height="84" rx="4" />
<rect class="entity-header" x="40" y="736" width="136" height="28" rx="4" />
<rect class="entity-header" x="40" y="760" width="136" height="4" />
<text class="entity-name" x="108" y="755" text-anchor="middle">Level4</text>
<line x1="40" y1="764" x2="176" y2="764" stroke="#333" stroke-width="1" />
<text class="column-text pk" x="52" y="786">◆ id: int</text>
<text class="column-text fk" x="52" y="806">  parent_id: int</text>
<rect class="entity-border" x="40" y="736" width="136" height="84" rx="4" />
<rect class="entity-bg" x="40" y="910" width="136" height="84" rx="4" />
<rect class="entity-header" x="40" y="910" width="136" height="28" rx="4" />
<rect class="entity-header" x="40" y="934" width="136" height="4" />
<text class="entity-name" x="108" y="929" text-anchor="middle">Level5</text>
<line x1="40" y1="938" x2="176" y2="938" stroke="#333" stroke-width="1" />
<text class="column-text pk" x="52" y="960">◆ id: int</text>
<text class="column-text fk" x="52" y="980">  parent_id: int</text>
<rect class="entity-border" x="40" y="910" width="136" height="84" rx="4" />
<rect class="cardinality-bg" x="93.5" y="126.0" width="13.0" height="19.0" rx="2" />
<text class="cardinality" x="100" y="135.5" text-anchor="middle" dominant-baseline="middle">1</text>
<rect class="cardinality-bg" x="101.5" y="193.0" width="13.0" height="19.0" rx="2" />
<text class="cardinality" x="108" y="202.5" text-anchor="middle" dominant-baseline="middle">*</text>
<rect class="cardinality-bg" x="101.5" y="300.0" width="13.0" height="19.0" rx="2" />
<text class="cardinality" x="108" y="309.5" text-anchor="middle" dominant-baseline="middle">1</text>
<rect class="cardinality-bg" x="101.5" y="367.0" width="13.0" height="19.0" rx="2" />
<text class="cardinality" x="108" y="376.5" text-anchor="middle" dominant-baseline="middle">*</text>
<rect class="cardinality-bg" x="101.5" y="474.0" width="13.0" height="19.0" rx="2" />
<text class="cardinality" x="108" y="483.5" text-anchor="middle" dominant-baseline="middle">1</text>
<rect class="cardinality-bg" x="101.5" y="541.0" width="13.0" height="19.0" rx="2" />
<text class="cardinality" x="108" y="550.5" text-anchor="middle" dominant-baseline="middle">*</text>
<rect class="cardinality-bg" x="101.5" y="648.0" width="13.0" height="19.0" rx="2" />
<text class="cardinality" x="108" y="657.5" text-anchor="middle" dominant-baseline="middle">1</text>
<rect class="cardinality-bg" x="101.5" y="715.0" width="13.0" height="19.0" rx="2" />
<text class="cardinality" x="108" y="724.5" text-anchor="middle" dominant-baseline="middle">*</text>
<rect class="cardinality-bg" x="101.5" y="822.0" width="13.0" height="19.0" rx="2" />
<text class="cardinality" x="108" y="831.5" text-anchor="middle" dominant-baseline="middle">1</text>
<rect class="cardinality-bg" x="101.5" y="889.0" width="13.0" height="19.0" rx="2" />
<text class="cardinality" x="108" y="898.5" text-anchor="middle" dominant-baseline="middle">*</text>
</svg>
