<svg xmlns="http://www.w3.org/2000/svg" width="688" height="692" viewBox="0 0 688 692">
<style>
  .entity-bg { fill: #fff; }
  .entity-header { fill: #e0e0e0; }
  .entity-border { fill: none; stroke: #333; stroke-width: 1.5; }
  .entity-name { font-family: monospace; font-size: 14px; font-weight: bold; }
  .column-text { font-family: monospace; font-size: 12px; }
  .pk { font-weight: bold; }
  .fk { font-style: italic; }
  .edge { stroke: #666; stroke-width: 1.5; fill: none; }
  .edge-label { font-family: monospace; font-size: 12px; fill: #666; paint-order: stroke; stroke: rgba(255,255,255,0.85); stroke-width: 3px; }
  .cardinality { font-family: monospace; font-size: 15px; font-weight: bold; fill: #333; paint-order: stroke; stroke: rgba(255,255,255,0.85); stroke-width: 4px; }
</style>
<path class="edge" d="M 52 124 L 52 241 Q 52 249 60 249 L 100 249 Q 108 249 108 257 L 108 294" />
<path class="edge" d="M 76 124 L 76 221 Q 76 229 84 229 L 88 229 Q 96 229 96 237 L 96 548" />
<path class="edge" d="M 100 124 L 100 201 Q 100 209 108 209 L 316 209 Q 324 209 324 217 L 324 548" />
<path class="edge" d="M 124 124 L 124 181 Q 124 189 132 189 L 332 189 Q 340 189 340 197 L 340 294" />
<path class="edge" d="M 148 124 L 148 161 Q 148 169 156 169 L 356 169 Q 364 169 364 177 L 364 294" />
<path class="edge" d="M 84 378 L 84 495 Q 84 503 92 503 L 112 503 Q 120 503 120 511 L 120 548" />
<path class="edge" d="M 108 378 L 108 475 Q 108 483 116 483 L 340 483 Q 348 483 348 491 L 348 548" />
<path class="edge" d="M 132 378 L 132 455 Q 132 463 140 463 L 536 463 Q 544 463 544 471 L 544 548" />
<path class="edge" d="M 588 378 L 588 435 Q 588 443 580 443 L 576 443 Q 568 443 568 451 L 568 548" />
<rect class="entity-bg" x="40" y="40" width="120" height="84" rx="4" />
<rect class="entity-header" x="40" y="40" width="120" height="28" rx="4" />
<rect class="entity-header" x="40" y="64" width="120" height="4" />
<text class="entity-name" x="100" y="59" text-anchor="middle">User</text>
<line x1="40" y1="68" x2="160" y2="68" stroke="#333" stroke-width="1" />
<text class="column-text pk" x="52" y="90">◆ id: int</text>
<text class="column-text" x="52" y="110">  name: string</text>
<rect class="entity-border" x="40" y="40" width="120" height="84" rx="4" />
<rect class="entity-bg" x="40" y="294" width="136" height="84" rx="4" />
<rect class="entity-header" x="40" y="294" width="136" height="28" rx="4" />
<rect class="entity-header" x="40" y="318" width="136" height="4" />
<text class="entity-name" x="108" y="313" text-anchor="middle">Post</text>
<line x1="40" y1="322" x2="176" y2="322" stroke="#333" stroke-width="1" />
<text class="column-text pk" x="52" y="344">◆ id: int</text>
<text class="column-text fk" x="52" y="364">  author_id: int</text>
<rect class="entity-border" x="40" y="294" width="136" height="84" rx="4" />
<rect class="entity-bg" x="276" y="294" width="152" height="104" rx="4" />
<rect class="entity-header" x="276" y="294" width="152" height="28" rx="4" />
<rect class="entity-header" x="276" y="318" width="152" height="4" />
<text class="entity-name" x="352" y="313" text-anchor="middle">Follow</text>
<line x1="276" y1="322" x2="428" y2="322" stroke="#333" stroke-width="1" />
<text class="column-text pk" x="288" y="344">◆ id: int</text>
<text class="column-text fk" x="288" y="364">  follower_id: int</text>
<text class="column-text fk" x="288" y="384">  followee_id: int</text>
<rect class="entity-border" x="276" y="294" width="152" height="104" rx="4" />
<rect class="entity-bg" x="528" y="294" width="120" height="84" rx="4" />
<rect class="entity-header" x="528" y="294" width="120" height="28" rx="4" />
<rect class="entity-header" x="528" y="318" width="120" height="4" />
<text class="entity-name" x="588" y="313" text-anchor="middle">Tag</text>
<line x1="528" y1="322" x2="648" y2="322" stroke="#333" stroke-width="1" />
<text class="column-text pk" x="540" y="344">◆ id: int</text>
<text class="column-text" x="540" y="364">  name: string</text>
<rect class="entity-border" x="528" y="294" width="120" height="84" rx="4" />
<rect class="entity-bg" x="40" y="548" width="136" height="104" rx="4" />
<rect class="entity-header" x="40" y="548" width="136" height="28" rx="4" />
<rect class="entity-header" x="40" y="572" width="136" height="4" />
<text class="entity-name" x="108" y="567" text-anchor="middle">Comment</text>
<line x1="40" y1="576" x2="176" y2="576" stroke="#333" stroke-width="1" />
<text class="column-text pk" x="52" y="598">◆ id: int</text>
<text class="column-text fk" x="52" y="618">  author_id: int</text>
<text class="column-text fk" x="52" y="638">  post_id: int</text>
<rect class="entity-border" x="40" y="548" width="136" height="104" rx="4" />
<rect class="entity-bg" x="276" y="548" width="120" height="104" rx="4" />
<rect class="entity-header" x="276" y="548" width="120" height="28" rx="4" />
<rect class="entity-header" x="276" y="572" width="120" height="4" />
<text class="entity-name" x="336" y="567" text-anchor="middle">Like</text>
<line x1="276" y1="576" x2="396" y2="576" stroke="#333" stroke-width="1" />
<text class="column-text pk" x="288" y="598">◆ id: int</text>
<text class="column-text fk" x="288" y="618">  user_id: int</text>
<text class="column-text fk" x="288" y="638">  post_id: int</text>
<rect class="entity-border" x="276" y="548" width="120" height="104" rx="4" />
<rect class="entity-bg" x="496" y="548" width="120" height="104" rx="4" />
<rect class="entity-header" x="496" y="548" width="120" height="28" rx="4" />
<rect class="entity-header" x="496" y="572" width="120" height="4" />
<text class="entity-name" x="556" y="567" text-anchor="middle">PostTag</text>
<line x1="496" y1="576" x2="616" y2="576" stroke="#333" stroke-width="1" />
<text class="column-text pk" x="508" y="598">◆ id: int</text>
<text class="column-text fk" x="508" y="618">  post_id: int</text>
<text class="column-text fk" x="508" y="638">  tag_id: int</text>
<rect class="entity-border" x="496" y="548" width="120" height="104" rx="4" />
<text class="cardinality" x="59.5" y="131.5" text-anchor="end" dominant-baseline="middle">1</text>
<text class="cardinality" x="100.5" y="286.5" text-anchor="start" dominant-baseline="middle">*</text>
<text class="edge-label" x="80" y="245" text-anchor="middle" dominant-baseline="alphabetic">writes</text>
<text class="cardinality" x="83.5" y="131.5" text-anchor="end" dominant-baseline="middle">1</text>
<text class="cardinality" x="88.5" y="540.5" text-anchor="start" dominant-baseline="middle">*</text>
<text class="edge-label" x="86" y="225" text-anchor="middle" dominant-baseline="alphabetic">comments</text>
<text class="cardinality" x="107.5" y="131.5" text-anchor="end" dominant-baseline="middle">1</text>
<text class="cardinality" x="316.5" y="540.5" text-anchor="start" dominant-baseline="middle">*</text>
<text class="edge-label" x="212" y="205" text-anchor="middle" dominant-baseline="alphabetic">likes</text>
<text class="cardinality" x="131.5" y="131.5" text-anchor="end" dominant-baseline="middle">1</text>
<text class="cardinality" x="332.5" y="286.5" text-anchor="start" dominant-baseline="middle">*</text>
<text class="edge-label" x="232" y="185" text-anchor="middle" dominant-baseline="alphabetic">follows</text>
<text class="cardinality" x="155.5" y="131.5" text-anchor="end" dominant-baseline="middle">1</text>
<text class="cardinality" x="356.5" y="286.5" text-anchor="start" dominant-baseline="middle">*</text>
<text class="edge-label" x="256" y="165" text-anchor="middle" dominant-baseline="alphabetic">followed by</text>
<text class="cardinality" x="91.5" y="385.5" text-anchor="end" dominant-baseline="middle">1</text>
<text class="cardinality" x="112.5" y="540.5" text-anchor="start" dominant-baseline="middle">*</text>
<text class="cardinality" x="115.5" y="385.5" text-anchor="end" dominant-baseline="middle">1</text>
<text class="cardinality" x="340.5" y="540.5" text-anchor="start" dominant-baseline="middle">*</text>
<text class="cardinality" x="139.5" y="385.5" text-anchor="end" dominant-baseline="middle">1</text>
<text class="cardinality" x="536.5" y="540.5" text-anchor="start" dominant-baseline="middle">*</text>
<text class="cardinality" x="595.5" y="385.5" text-anchor="end" dominant-baseline="middle">1</text>
<text class="cardinality" x="560.5" y="540.5" text-anchor="start" dominant-baseline="middle">*</text>
</svg>
