<svg xmlns="http://www.w3.org/2000/svg" width="688" height="532" viewBox="0 0 688 532">
<style>
  .entity-bg { fill: #fff; }
  .entity-header { fill: #e0e0e0; }
  .entity-border { fill: none; stroke: #333; stroke-width: 1.5; }
  .entity-name { font-family: monospace; font-size: 14px; font-weight: bold; }
  .column-text { font-family: monospace; font-size: 12px; }
  .pk { font-weight: bold; }
  .fk { font-style: italic; }
  .edge { stroke: #666; stroke-width: 1.5; fill: none; }
  .edge-label { font-family: monospace; font-size: 12px; fill: #666; paint-order: stroke; stroke: rgba(255,255,255,0.85); stroke-width: 3px; }
  .cardinality { font-family: monospace; font-size: 15px; font-weight: bold; fill: #333; paint-order: stroke; stroke: rgba(255,255,255,0.85); stroke-width: 4px; }
</style>
<line class="edge" x1="52" y1="124" x2="108" y2="204" />
<line class="edge" x1="100" y1="124" x2="84" y2="388" />
<line class="edge" x1="148" y1="124" x2="312" y2="388" />
<line class="edge" x1="160" y1="58" x2="276" y2="232" />
<line class="edge" x1="160" y1="106" x2="276" y2="280" />
<line class="edge" x1="84" y1="288" x2="132" y2="388" />
<line class="edge" x1="132" y1="288" x2="360" y2="388" />
<line class="edge" x1="176" y1="246" x2="496" y2="440" />
<line class="edge" x1="588" y1="288" x2="556" y2="388" />
<rect class="entity-bg" x="40" y="40" width="120" height="84" rx="4" />
<rect class="entity-header" x="40" y="40" width="120" height="28" rx="4" />
<rect class="entity-header" x="40" y="64" width="120" height="4" />
<text class="entity-name" x="100" y="59" text-anchor="middle">User</text>
<line x1="40" y1="68" x2="160" y2="68" stroke="#333" stroke-width="1" />
<text class="column-text pk" x="52" y="90">◆ id: int</text>
<text class="column-text" x="52" y="110">  name: string</text>
<rect class="entity-border" x="40" y="40" width="120" height="84" rx="4" />
<rect class="entity-bg" x="40" y="204" width="136" height="84" rx="4" />
<rect class="entity-header" x="40" y="204" width="136" height="28" rx="4" />
<rect class="entity-header" x="40" y="228" width="136" height="4" />
<text class="entity-name" x="108" y="223" text-anchor="middle">Post</text>
<line x1="40" y1="232" x2="176" y2="232" stroke="#333" stroke-width="1" />
<text class="column-text pk" x="52" y="254">◆ id: int</text>
<text class="column-text fk" x="52" y="274">  author_id: int</text>
<rect class="entity-border" x="40" y="204" width="136" height="84" rx="4" />
<rect class="entity-bg" x="276" y="204" width="152" height="104" rx="4" />
<rect class="entity-header" x="276" y="204" width="152" height="28" rx="4" />
<rect class="entity-header" x="276" y="228" width="152" height="4" />
<text class="entity-name" x="352" y="223" text-anchor="middle">Follow</text>
<line x1="276" y1="232" x2="428" y2="232" stroke="#333" stroke-width="1" />
<text class="column-text pk" x="288" y="254">◆ id: int</text>
<text class="column-text fk" x="288" y="274">  follower_id: int</text>
<text class="column-text fk" x="288" y="294">  followee_id: int</text>
<rect class="entity-border" x="276" y="204" width="152" height="104" rx="4" />
<rect class="entity-bg" x="528" y="204" width="120" height="84" rx="4" />
<rect class="entity-header" x="528" y="204" width="120" height="28" rx="4" />
<rect class="entity-header" x="528" y="228" width="120" height="4" />
<text class="entity-name" x="588" y="223" text-anchor="middle">Tag</text>
<line x1="528" y1="232" x2="648" y2="232" stroke="#333" stroke-width="1" />
<text class="column-text pk" x="540" y="254">◆ id: int</text>
<text class="column-text" x="540" y="274">  name: string</text>
<rect class="entity-border" x="528" y="204" width="120" height="84" rx="4" />
<rect class="entity-bg" x="40" y="388" width="136" height="104" rx="4" />
<rect class="entity-header" x="40" y="388" width="136" height="28" rx="4" />
<rect class="entity-header" x="40" y="412" width="136" height="4" />
<text class="entity-name" x="108" y="407" text-anchor="middle">Comment</text>
<line x1="40" y1="416" x2="176" y2="416" stroke="#333" stroke-width="1" />
<text class="column-text pk" x="52" y="438">◆ id: int</text>
<text class="column-text fk" x="52" y="458">  author_id: int</text>
<text class="column-text fk" x="52" y="478">  post_id: int</text>
<rect class="entity-border" x="40" y="388" width="136" height="104" rx="4" />
<rect class="entity-bg" x="276" y="388" width="120" height="104" rx="4" />
<rect class="entity-header" x="276" y="388" width="120" height="28" rx="4" />
<rect class="entity-header" x="276" y="412" width="120" height="4" />
<text class="entity-name" x="336" y="407" text-anchor="middle">Like</text>
<line x1="276" y1="416" x2="396" y2="416" stroke="#333" stroke-width="1" />
<text class="column-text pk" x="288" y="438">◆ id: int</text>
<text class="column-text fk" x="288" y="458">  user_id: int</text>
<text class="column-text fk" x="288" y="478">  post_id: int</text>
<rect class="entity-border" x="276" y="388" width="120" height="104" rx="4" />
<rect class="entity-bg" x="496" y="388" width="120" height="104" rx="4" />
<rect class="entity-header" x="496" y="388" width="120" height="28" rx="4" />
<rect class="entity-header" x="496" y="412" width="120" height="4" />
<text class="entity-name" x="556" y="407" text-anchor="middle">PostTag</text>
<line x1="496" y1="416" x2="616" y2="416" stroke="#333" stroke-width="1" />
<text class="column-text pk" x="508" y="438">◆ id: int</text>
<text class="column-text fk" x="508" y="458">  post_id: int</text>
<text class="column-text fk" x="508" y="478">  tag_id: int</text>
<rect class="entity-border" x="496" y="388" width="120" height="104" rx="4" />
<text class="cardinality" x="56.300967582724965" y="130.1442394038928" text-anchor="start" dominant-baseline="hanging">1</text>
<text class="cardinality" x="103.69903241727503" y="197.8557605961072" text-anchor="end" dominant-baseline="alphabetic">*</text>
<text class="edge-label" x="80" y="164" text-anchor="middle" dominant-baseline="middle">writes</text>
<text class="cardinality" x="99.54628704698582" y="131.48626372473393" text-anchor="end" dominant-baseline="hanging">1</text>
<text class="cardinality" x="84.45371295301418" y="380.51373627526607" text-anchor="start" dominant-baseline="alphabetic">*</text>
<text class="edge-label" x="92" y="256" text-anchor="middle" dominant-baseline="middle">comments</text>
<text class="cardinality" x="151.95762401050354" y="130.3708093827618" text-anchor="start" dominant-baseline="hanging">1</text>
<text class="cardinality" x="308.04237598949646" y="381.6291906172382" text-anchor="end" dominant-baseline="alphabetic">*</text>
<text class="edge-label" x="230" y="256" text-anchor="middle" dominant-baseline="middle">likes</text>
<text class="cardinality" x="164.1602514716892" y="64.24037720753383" text-anchor="start" dominant-baseline="hanging">1</text>
<text class="cardinality" x="271.8397485283108" y="225.75962279246616" text-anchor="end" dominant-baseline="alphabetic">*</text>
<text class="edge-label" x="218" y="145" text-anchor="middle" dominant-baseline="middle">follows</text>
<text class="cardinality" x="164.1602514716892" y="112.24037720753383" text-anchor="start" dominant-baseline="hanging">1</text>
<text class="cardinality" x="271.8397485283108" y="273.7596227924662" text-anchor="end" dominant-baseline="alphabetic">*</text>
<text class="edge-label" x="218" y="193" text-anchor="middle" dominant-baseline="middle">followed by</text>
<text class="cardinality" x="87.24548300688579" y="294.7614229310121" text-anchor="start" dominant-baseline="hanging">1</text>
<text class="cardinality" x="128.7545169931142" y="381.2385770689879" text-anchor="end" dominant-baseline="alphabetic">*</text>
<text class="cardinality" x="138.86841156595463" y="291.012461213138" text-anchor="start" dominant-baseline="hanging">1</text>
<text class="cardinality" x="353.1315884340454" y="384.987538786862" text-anchor="end" dominant-baseline="alphabetic">*</text>
<text class="cardinality" x="182.41344527307965" y="249.88815119680453" text-anchor="start" dominant-baseline="hanging">1</text>
<text class="cardinality" x="489.5865547269204" y="436.11184880319547" text-anchor="end" dominant-baseline="alphabetic">*</text>
<text class="cardinality" x="585.7141820467216" y="295.14318110399495" text-anchor="end" dominant-baseline="hanging">1</text>
<text class="cardinality" x="558.2858179532784" y="380.85681889600505" text-anchor="start" dominant-baseline="alphabetic">*</text>
</svg>
