<svg xmlns="http://www.w3.org/2000/svg" width="688" height="720" viewBox="0 0 688 720">
<style>
  .entity-bg { fill: #fff; }
  .entity-header { fill: #e0e0e0; }
  .entity-border { fill: none; stroke: #333; stroke-width: 1.5; }
  .entity-name { font-family: monospace; font-size: 14px; font-weight: bold; }
  .column-text { font-family: monospace; font-size: 12px; }
  .pk { font-weight: bold; }
  .fk { font-style: italic; }
  .edge { stroke: #666; stroke-width: 1.5; fill: none; }
  .edge-label-bg { fill: rgba(245,245,245,0.6); }
  .edge-label { font-family: monospace; font-size: 14px; fill: #555; }
  .cardinality-bg { fill: rgba(240,240,240,0.6); }
  .cardinality { font-family: monospace; font-size: 15px; font-weight: bold; fill: #333; }
</style>
<path class="edge" d="M 60 124 L 60 257 Q 60 265 68 265 L 100 265 Q 108 265 108 273 L 108 310" />
<path class="edge" d="M 100 124 L 100 233 Q 100 241 108 241 L 120 241 Q 128 241 128 249 L 128 576" />
<path class="edge" d="M 140 124 L 140 209 Q 140 217 148 217 L 348 217 Q 356 217 356 225 L 356 576" />
<path class="edge" d="M 180 124 L 180 185 Q 180 193 188 193 L 324 193 Q 332 193 332 201 L 332 310" />
<path class="edge" d="M 220 124 L 220 161 Q 220 169 228 169 L 364 169 Q 372 169 372 177 L 372 310" />
<path class="edge" d="M 68 394 L 68 523 Q 68 531 76 531 L 80 531 Q 88 531 88 539 L 88 576" />
<path class="edge" d="M 108 394 L 108 499 Q 108 507 116 507 L 308 507 Q 316 507 316 515 L 316 576" />
<path class="edge" d="M 148 394 L 148 475 Q 148 483 156 483 L 528 483 Q 536 483 536 491 L 536 576" />
<path class="edge" d="M 588 394 L 588 453 Q 588 459 582 459 L 582 459 Q 576 459 576 465 L 576 576" />
<rect class="entity-bg" x="40" y="40" width="200" height="84" rx="4" />
<rect class="entity-header" x="40" y="40" width="200" height="28" rx="4" />
<rect class="entity-header" x="40" y="64" width="200" height="4" />
<text class="entity-name" x="140" y="59" text-anchor="middle">User</text>
<line x1="40" y1="68" x2="240" y2="68" stroke="#333" stroke-width="1" />
<text class="column-text pk" x="52" y="90">◆ id: int</text>
<text class="column-text" x="52" y="110">  name: string</text>
<rect class="entity-border" x="40" y="40" width="200" height="84" rx="4" />
<rect class="entity-bg" x="40" y="310" width="136" height="84" rx="4" />
<rect class="entity-header" x="40" y="310" width="136" height="28" rx="4" />
<rect class="entity-header" x="40" y="334" width="136" height="4" />
<text class="entity-name" x="108" y="329" text-anchor="middle">Post</text>
<line x1="40" y1="338" x2="176" y2="338" stroke="#333" stroke-width="1" />
<text class="column-text pk" x="52" y="360">◆ id: int</text>
<text class="column-text fk" x="52" y="380">  author_id: int</text>
<rect class="entity-border" x="40" y="310" width="136" height="84" rx="4" />
<rect class="entity-bg" x="276" y="310" width="152" height="104" rx="4" />
<rect class="entity-header" x="276" y="310" width="152" height="28" rx="4" />
<rect class="entity-header" x="276" y="334" width="152" height="4" />
<text class="entity-name" x="352" y="329" text-anchor="middle">Follow</text>
<line x1="276" y1="338" x2="428" y2="338" stroke="#333" stroke-width="1" />
<text class="column-text pk" x="288" y="360">◆ id: int</text>
<text class="column-text fk" x="288" y="380">  follower_id: int</text>
<text class="column-text fk" x="288" y="400">  followee_id: int</text>
<rect class="entity-border" x="276" y="310" width="152" height="104" rx="4" />
<rect class="entity-bg" x="528" y="310" width="120" height="84" rx="4" />
<rect class="entity-header" x="528" y="310" width="120" height="28" rx="4" />
<rect class="entity-header" x="528" y="334" width="120" height="4" />
<text class="entity-name" x="588" y="329" text-anchor="middle">Tag</text>
<line x1="528" y1="338" x2="648" y2="338" stroke="#333" stroke-width="1" />
<text class="column-text pk" x="540" y="360">◆ id: int</text>
<text class="column-text" x="540" y="380">  name: string</text>
<rect class="entity-border" x="528" y="310" width="120" height="84" rx="4" />
<rect class="entity-bg" x="40" y="576" width="136" height="104" rx="4" />
<rect class="entity-header" x="40" y="576" width="136" height="28" rx="4" />
<rect class="entity-header" x="40" y="600" width="136" height="4" />
<text class="entity-name" x="108" y="595" text-anchor="middle">Comment</text>
<line x1="40" y1="604" x2="176" y2="604" stroke="#333" stroke-width="1" />
<text class="column-text pk" x="52" y="626">◆ id: int</text>
<text class="column-text fk" x="52" y="646">  author_id: int</text>
<text class="column-text fk" x="52" y="666">  post_id: int</text>
<rect class="entity-border" x="40" y="576" width="136" height="104" rx="4" />
<rect class="entity-bg" x="276" y="576" width="120" height="104" rx="4" />
<rect class="entity-header" x="276" y="576" width="120" height="28" rx="4" />
<rect class="entity-header" x="276" y="600" width="120" height="4" />
<text class="entity-name" x="336" y="595" text-anchor="middle">Like</text>
<line x1="276" y1="604" x2="396" y2="604" stroke="#333" stroke-width="1" />
<text class="column-text pk" x="288" y="626">◆ id: int</text>
<text class="column-text fk" x="288" y="646">  user_id: int</text>
<text class="column-text fk" x="288" y="666">  post_id: int</text>
<rect class="entity-border" x="276" y="576" width="120" height="104" rx="4" />
<rect class="entity-bg" x="496" y="576" width="120" height="104" rx="4" />
<rect class="entity-header" x="496" y="576" width="120" height="28" rx="4" />
<rect class="entity-header" x="496" y="600" width="120" height="4" />
<text class="entity-name" x="556" y="595" text-anchor="middle">PostTag</text>
<line x1="496" y1="604" x2="616" y2="604" stroke="#333" stroke-width="1" />
<text class="column-text pk" x="508" y="626">◆ id: int</text>
<text class="column-text fk" x="508" y="646">  post_id: int</text>
<text class="column-text fk" x="508" y="666">  tag_id: int</text>
<rect class="entity-border" x="496" y="576" width="120" height="104" rx="4" />
<rect class="cardinality-bg" x="53.5" y="126.0" width="13.0" height="19.0" rx="2" />
<text class="cardinality" x="60" y="135.5" text-anchor="middle" dominant-baseline="middle">1</text>
<rect class="cardinality-bg" x="101.5" y="289.0" width="13.0" height="19.0" rx="2" />
<text class="cardinality" x="108" y="298.5" text-anchor="middle" dominant-baseline="middle">*</text>
<rect class="edge-label-bg" x="55.8" y="255.0" width="56.4" height="20.0" rx="2" />
<text class="edge-label" x="84" y="265" text-anchor="middle" dominant-baseline="middle">writes</text>
<rect class="cardinality-bg" x="93.5" y="126.0" width="13.0" height="19.0" rx="2" />
<text class="cardinality" x="100" y="135.5" text-anchor="middle" dominant-baseline="middle">1</text>
<rect class="cardinality-bg" x="121.5" y="555.0" width="13.0" height="19.0" rx="2" />
<text class="cardinality" x="128" y="564.5" text-anchor="middle" dominant-baseline="middle">*</text>
<rect class="edge-label-bg" x="77.4" y="231.0" width="73.2" height="20.0" rx="2" />
<text class="edge-label" x="114" y="241" text-anchor="middle" dominant-baseline="middle">comments</text>
<rect class="cardinality-bg" x="133.5" y="126.0" width="13.0" height="19.0" rx="2" />
<text class="cardinality" x="140" y="135.5" text-anchor="middle" dominant-baseline="middle">1</text>
<rect class="cardinality-bg" x="349.5" y="555.0" width="13.0" height="19.0" rx="2" />
<text class="cardinality" x="356" y="564.5" text-anchor="middle" dominant-baseline="middle">*</text>
<rect class="edge-label-bg" x="224.0" y="207.0" width="48.0" height="20.0" rx="2" />
<text class="edge-label" x="248" y="217" text-anchor="middle" dominant-baseline="middle">likes</text>
<rect class="cardinality-bg" x="173.5" y="126.0" width="13.0" height="19.0" rx="2" />
<text class="cardinality" x="180" y="135.5" text-anchor="middle" dominant-baseline="middle">1</text>
<rect class="cardinality-bg" x="325.5" y="289.0" width="13.0" height="19.0" rx="2" />
<text class="cardinality" x="332" y="298.5" text-anchor="middle" dominant-baseline="middle">*</text>
<rect class="edge-label-bg" x="223.6" y="183.0" width="64.8" height="20.0" rx="2" />
<text class="edge-label" x="256" y="193" text-anchor="middle" dominant-baseline="middle">follows</text>
<rect class="cardinality-bg" x="213.5" y="126.0" width="13.0" height="19.0" rx="2" />
<text class="cardinality" x="220" y="135.5" text-anchor="middle" dominant-baseline="middle">1</text>
<rect class="cardinality-bg" x="365.5" y="289.0" width="13.0" height="19.0" rx="2" />
<text class="cardinality" x="372" y="298.5" text-anchor="middle" dominant-baseline="middle">*</text>
<rect class="edge-label-bg" x="246.8" y="159.0" width="98.4" height="20.0" rx="2" />
<text class="edge-label" x="296" y="169" text-anchor="middle" dominant-baseline="middle">followed by</text>
<rect class="cardinality-bg" x="61.5" y="396.0" width="13.0" height="19.0" rx="2" />
<text class="cardinality" x="68" y="405.5" text-anchor="middle" dominant-baseline="middle">1</text>
<rect class="cardinality-bg" x="81.5" y="555.0" width="13.0" height="19.0" rx="2" />
<text class="cardinality" x="88" y="564.5" text-anchor="middle" dominant-baseline="middle">*</text>
<rect class="cardinality-bg" x="101.5" y="396.0" width="13.0" height="19.0" rx="2" />
<text class="cardinality" x="108" y="405.5" text-anchor="middle" dominant-baseline="middle">1</text>
<rect class="cardinality-bg" x="309.5" y="555.0" width="13.0" height="19.0" rx="2" />
<text class="cardinality" x="316" y="564.5" text-anchor="middle" dominant-baseline="middle">*</text>
<rect class="cardinality-bg" x="141.5" y="396.0" width="13.0" height="19.0" rx="2" />
<text class="cardinality" x="148" y="405.5" text-anchor="middle" dominant-baseline="middle">1</text>
<rect class="cardinality-bg" x="529.5" y="555.0" width="13.0" height="19.0" rx="2" />
<text class="cardinality" x="536" y="564.5" text-anchor="middle" dominant-baseline="middle">*</text>
<rect class="cardinality-bg" x="581.5" y="396.0" width="13.0" height="19.0" rx="2" />
<text class="cardinality" x="588" y="405.5" text-anchor="middle" dominant-baseline="middle">1</text>
<rect class="cardinality-bg" x="569.5" y="555.0" width="13.0" height="19.0" rx="2" />
<text class="cardinality" x="576" y="564.5" text-anchor="middle" dominant-baseline="middle">*</text>
</svg>
