<svg xmlns="http://www.w3.org/2000/svg" width="688" height="720" viewBox="0 0 688 720">
<style>
  .entity-bg { fill: #fff; }
  .entity-header { fill: #e0e0e0; }
  .entity-border { fill: none; stroke: #333; stroke-width: 1.5; }
  .entity-name { font-family: monospace; font-size: 14px; font-weight: bold; }
  .column-text { font-family: monospace; font-size: 12px; }
  .pk { font-weight: bold; }
  .fk { font-style: italic; }
  .edge { stroke: #666; stroke-width: 1.5; fill: none; }
  .edge-label { font-family: monospace; font-size: 12px; fill: #666; paint-order: stroke; stroke: rgba(255,255,255,0.85); stroke-width: 3px; }
  .cardinality { font-family: monospace; font-size: 15px; font-weight: bold; fill: #333; paint-order: stroke; stroke: rgba(255,255,255,0.85); stroke-width: 4px; }
</style>
<path class="edge" d="M 52 124 L 52 257 Q 52 265 60 265 L 100 265 Q 108 265 108 273 L 108 310" />
<path class="edge" d="M 76 124 L 76 233 Q 76 241 84 241 L 88 241 Q 96 241 96 249 L 96 576" />
<path class="edge" d="M 100 124 L 100 209 Q 100 217 108 217 L 316 217 Q 324 217 324 225 L 324 576" />
<path class="edge" d="M 124 124 L 124 185 Q 124 193 132 193 L 332 193 Q 340 193 340 201 L 340 310" />
<path class="edge" d="M 148 124 L 148 161 Q 148 169 156 169 L 356 169 Q 364 169 364 177 L 364 310" />
<path class="edge" d="M 84 394 L 84 523 Q 84 531 92 531 L 112 531 Q 120 531 120 539 L 120 576" />
<path class="edge" d="M 108 394 L 108 499 Q 108 507 116 507 L 340 507 Q 348 507 348 515 L 348 576" />
<path class="edge" d="M 132 394 L 132 475 Q 132 483 140 483 L 536 483 Q 544 483 544 491 L 544 576" />
<path class="edge" d="M 588 394 L 588 451 Q 588 459 580 459 L 576 459 Q 568 459 568 467 L 568 576" />
<rect class="entity-bg" x="40" y="40" width="120" height="84" rx="4" />
<rect class="entity-header" x="40" y="40" width="120" height="28" rx="4" />
<rect class="entity-header" x="40" y="64" width="120" height="4" />
<text class="entity-name" x="100" y="59" text-anchor="middle">User</text>
<line x1="40" y1="68" x2="160" y2="68" stroke="#333" stroke-width="1" />
<text class="column-text pk" x="52" y="90">◆ id: int</text>
<text class="column-text" x="52" y="110">  name: string</text>
<rect class="entity-border" x="40" y="40" width="120" height="84" rx="4" />
<rect class="entity-bg" x="40" y="310" width="136" height="84" rx="4" />
<rect class="entity-header" x="40" y="310" width="136" height="28" rx="4" />
<rect class="entity-header" x="40" y="334" width="136" height="4" />
<text class="entity-name" x="108" y="329" text-anchor="middle">Post</text>
<line x1="40" y1="338" x2="176" y2="338" stroke="#333" stroke-width="1" />
<text class="column-text pk" x="52" y="360">◆ id: int</text>
<text class="column-text fk" x="52" y="380">  author_id: int</text>
<rect class="entity-border" x="40" y="310" width="136" height="84" rx="4" />
<rect class="entity-bg" x="276" y="310" width="152" height="104" rx="4" />
<rect class="entity-header" x="276" y="310" width="152" height="28" rx="4" />
<rect class="entity-header" x="276" y="334" width="152" height="4" />
<text class="entity-name" x="352" y="329" text-anchor="middle">Follow</text>
<line x1="276" y1="338" x2="428" y2="338" stroke="#333" stroke-width="1" />
<text class="column-text pk" x="288" y="360">◆ id: int</text>
<text class="column-text fk" x="288" y="380">  follower_id: int</text>
<text class="column-text fk" x="288" y="400">  followee_id: int</text>
<rect class="entity-border" x="276" y="310" width="152" height="104" rx="4" />
<rect class="entity-bg" x="528" y="310" width="120" height="84" rx="4" />
<rect class="entity-header" x="528" y="310" width="120" height="28" rx="4" />
<rect class="entity-header" x="528" y="334" width="120" height="4" />
<text class="entity-name" x="588" y="329" text-anchor="middle">Tag</text>
<line x1="528" y1="338" x2="648" y2="338" stroke="#333" stroke-width="1" />
<text class="column-text pk" x="540" y="360">◆ id: int</text>
<text class="column-text" x="540" y="380">  name: string</text>
<rect class="entity-border" x="528" y="310" width="120" height="84" rx="4" />
<rect class="entity-bg" x="40" y="576" width="136" height="104" rx="4" />
<rect class="entity-header" x="40" y="576" width="136" height="28" rx="4" />
<rect class="entity-header" x="40" y="600" width="136" height="4" />
<text class="entity-name" x="108" y="595" text-anchor="middle">Comment</text>
<line x1="40" y1="604" x2="176" y2="604" stroke="#333" stroke-width="1" />
<text class="column-text pk" x="52" y="626">◆ id: int</text>
<text class="column-text fk" x="52" y="646">  author_id: int</text>
<text class="column-text fk" x="52" y="666">  post_id: int</text>
<rect class="entity-border" x="40" y="576" width="136" height="104" rx="4" />
<rect class="entity-bg" x="276" y="576" width="120" height="104" rx="4" />
<rect class="entity-header" x="276" y="576" width="120" height="28" rx="4" />
<rect class="entity-header" x="276" y="600" width="120" height="4" />
<text class="entity-name" x="336" y="595" text-anchor="middle">Like</text>
<line x1="276" y1="604" x2="396" y2="604" stroke="#333" stroke-width="1" />
<text class="column-text pk" x="288" y="626">◆ id: int</text>
<text class="column-text fk" x="288" y="646">  user_id: int</text>
<text class="column-text fk" x="288" y="666">  post_id: int</text>
<rect class="entity-border" x="276" y="576" width="120" height="104" rx="4" />
<rect class="entity-bg" x="496" y="576" width="120" height="104" rx="4" />
<rect class="entity-header" x="496" y="576" width="120" height="28" rx="4" />
<rect class="entity-header" x="496" y="600" width="120" height="4" />
<text class="entity-name" x="556" y="595" text-anchor="middle">PostTag</text>
<line x1="496" y1="604" x2="616" y2="604" stroke="#333" stroke-width="1" />
<text class="column-text pk" x="508" y="626">◆ id: int</text>
<text class="column-text fk" x="508" y="646">  post_id: int</text>
<text class="column-text fk" x="508" y="666">  tag_id: int</text>
<rect class="entity-border" x="496" y="576" width="120" height="104" rx="4" />
<text class="cardinality" x="59.5" y="131.5" text-anchor="end" dominant-baseline="middle">1</text>
<text class="cardinality" x="100.5" y="302.5" text-anchor="start" dominant-baseline="middle">*</text>
<text class="edge-label" x="80" y="261" text-anchor="middle" dominant-baseline="alphabetic">writes</text>
<text class="cardinality" x="83.5" y="131.5" text-anchor="end" dominant-baseline="middle">1</text>
<text class="cardinality" x="88.5" y="568.5" text-anchor="start" dominant-baseline="middle">*</text>
<text class="edge-label" x="86" y="237" text-anchor="middle" dominant-baseline="alphabetic">comments</text>
<text class="cardinality" x="107.5" y="131.5" text-anchor="end" dominant-baseline="middle">1</text>
<text class="cardinality" x="316.5" y="568.5" text-anchor="start" dominant-baseline="middle">*</text>
<text class="edge-label" x="212" y="213" text-anchor="middle" dominant-baseline="alphabetic">likes</text>
<text class="cardinality" x="131.5" y="131.5" text-anchor="end" dominant-baseline="middle">1</text>
<text class="cardinality" x="332.5" y="302.5" text-anchor="start" dominant-baseline="middle">*</text>
<text class="edge-label" x="232" y="189" text-anchor="middle" dominant-baseline="alphabetic">follows</text>
<text class="cardinality" x="155.5" y="131.5" text-anchor="end" dominant-baseline="middle">1</text>
<text class="cardinality" x="356.5" y="302.5" text-anchor="start" dominant-baseline="middle">*</text>
<text class="edge-label" x="256" y="165" text-anchor="middle" dominant-baseline="alphabetic">followed by</text>
<text class="cardinality" x="91.5" y="401.5" text-anchor="end" dominant-baseline="middle">1</text>
<text class="cardinality" x="112.5" y="568.5" text-anchor="start" dominant-baseline="middle">*</text>
<text class="cardinality" x="115.5" y="401.5" text-anchor="end" dominant-baseline="middle">1</text>
<text class="cardinality" x="340.5" y="568.5" text-anchor="start" dominant-baseline="middle">*</text>
<text class="cardinality" x="139.5" y="401.5" text-anchor="end" dominant-baseline="middle">1</text>
<text class="cardinality" x="536.5" y="568.5" text-anchor="start" dominant-baseline="middle">*</text>
<text class="cardinality" x="595.5" y="401.5" text-anchor="end" dominant-baseline="middle">1</text>
<text class="cardinality" x="560.5" y="568.5" text-anchor="start" dominant-baseline="middle">*</text>
</svg>
