<svg xmlns="http://www.w3.org/2000/svg" width="492" height="736" viewBox="0 0 492 736">
<style>
  .entity-bg { fill: #fff; }
  .entity-header { fill: #e0e0e0; }
  .entity-border { fill: none; stroke: #333; stroke-width: 1.5; }
  .entity-name { font-family: monospace; font-size: 14px; font-weight: bold; }
  .column-text { font-family: monospace; font-size: 12px; }
  .pk { font-weight: bold; }
  .fk { font-style: italic; }
  .edge { stroke: #666; stroke-width: 1.5; fill: none; }
  .edge-label { font-family: monospace; font-size: 14px; fill: #555; paint-order: stroke; stroke: rgba(255,255,255,0.85); stroke-width: 3px; }
  .cardinality-bg { fill: rgba(240,240,240,0.7); }
  .cardinality { font-family: monospace; font-size: 15px; font-weight: bold; fill: #333; }
</style>
<path class="edge" d="M 140 204 L 140 243 Q 140 249 134 249 L 134 249 Q 128 249 128 255 L 128 294" />
<path class="edge" d="M 128 438 L 128 499 Q 128 507 120 507 L 92 507 Q 84 507 84 515 L 84 552" />
<path class="edge" d="M 384 438 L 384 475 Q 384 483 376 483 L 132 483 Q 124 483 124 491 L 124 552" />
<rect class="entity-bg" x="40" y="40" width="200" height="164" rx="4" />
<rect class="entity-header" x="40" y="40" width="200" height="28" rx="4" />
<rect class="entity-header" x="40" y="64" width="200" height="4" />
<text class="entity-name" x="140" y="59" text-anchor="middle">顧客</text>
<line x1="40" y1="68" x2="240" y2="68" stroke="#333" stroke-width="1" />
<text class="column-text pk" x="52" y="90">◆ 顧客ID: int</text>
<text class="column-text" x="52" y="110">  氏名: string</text>
<text class="column-text" x="52" y="130">  メールアドレス: string</text>
<text class="column-text" x="52" y="150">  電話番号: string</text>
<text class="column-text" x="52" y="170">  住所: string</text>
<text class="column-text" x="52" y="190">  登録日時: timestamp</text>
<rect class="entity-border" x="40" y="40" width="200" height="164" rx="4" />
<rect class="entity-bg" x="40" y="294" width="176" height="144" rx="4" />
<rect class="entity-header" x="40" y="294" width="176" height="28" rx="4" />
<rect class="entity-header" x="40" y="318" width="176" height="4" />
<text class="entity-name" x="128" y="313" text-anchor="middle">注文</text>
<line x1="40" y1="322" x2="216" y2="322" stroke="#333" stroke-width="1" />
<text class="column-text pk" x="52" y="344">◆ 注文ID: int</text>
<text class="column-text fk" x="52" y="364">  顧客ID: int</text>
<text class="column-text" x="52" y="384">  注文日時: timestamp</text>
<text class="column-text" x="52" y="404">  合計金額: decimal</text>
<text class="column-text" x="52" y="424">  ステータス: string</text>
<rect class="entity-border" x="40" y="294" width="176" height="144" rx="4" />
<rect class="entity-bg" x="316" y="294" width="136" height="144" rx="4" />
<rect class="entity-header" x="316" y="294" width="136" height="28" rx="4" />
<rect class="entity-header" x="316" y="318" width="136" height="4" />
<text class="entity-name" x="384" y="313" text-anchor="middle">商品</text>
<line x1="316" y1="322" x2="452" y2="322" stroke="#333" stroke-width="1" />
<text class="column-text pk" x="328" y="344">◆ 商品ID: int</text>
<text class="column-text" x="328" y="364">  商品名: string</text>
<text class="column-text" x="328" y="384">  説明: text</text>
<text class="column-text" x="328" y="404">  価格: decimal</text>
<text class="column-text" x="328" y="424">  在庫数: int</text>
<rect class="entity-border" x="316" y="294" width="136" height="144" rx="4" />
<rect class="entity-bg" x="40" y="552" width="128" height="144" rx="4" />
<rect class="entity-header" x="40" y="552" width="128" height="28" rx="4" />
<rect class="entity-header" x="40" y="576" width="128" height="4" />
<text class="entity-name" x="104" y="571" text-anchor="middle">注文明細</text>
<line x1="40" y1="580" x2="168" y2="580" stroke="#333" stroke-width="1" />
<text class="column-text pk" x="52" y="602">◆ 明細ID: int</text>
<text class="column-text fk" x="52" y="622">  注文ID: int</text>
<text class="column-text fk" x="52" y="642">  商品ID: int</text>
<text class="column-text" x="52" y="662">  数量: int</text>
<text class="column-text" x="52" y="682">  単価: decimal</text>
<rect class="entity-border" x="40" y="552" width="128" height="144" rx="4" />
<rect class="cardinality-bg" x="133.5" y="206.0" width="13.0" height="19.0" rx="2" />
<text class="cardinality" x="140" y="215.5" text-anchor="middle" dominant-baseline="middle">1</text>
<rect class="cardinality-bg" x="121.5" y="273.0" width="13.0" height="19.0" rx="2" />
<text class="cardinality" x="128" y="282.5" text-anchor="middle" dominant-baseline="middle">*</text>
<text class="edge-label" x="134" y="245" text-anchor="middle" dominant-baseline="alphabetic">注文する</text>
<rect class="cardinality-bg" x="121.5" y="440.0" width="13.0" height="19.0" rx="2" />
<text class="cardinality" x="128" y="449.5" text-anchor="middle" dominant-baseline="middle">1</text>
<rect class="cardinality-bg" x="77.5" y="531.0" width="13.0" height="19.0" rx="2" />
<text class="cardinality" x="84" y="540.5" text-anchor="middle" dominant-baseline="middle">*</text>
<rect class="cardinality-bg" x="377.5" y="440.0" width="13.0" height="19.0" rx="2" />
<text class="cardinality" x="384" y="449.5" text-anchor="middle" dominant-baseline="middle">1</text>
<rect class="cardinality-bg" x="117.5" y="531.0" width="13.0" height="19.0" rx="2" />
<text class="cardinality" x="124" y="540.5" text-anchor="middle" dominant-baseline="middle">*</text>
</svg>
