<svg xmlns="http://www.w3.org/2000/svg" width="492" height="692" viewBox="0 0 492 692">
<style>
  .entity-bg { fill: #fff; }
  .entity-header { fill: #e0e0e0; }
  .entity-border { fill: none; stroke: #333; stroke-width: 1.5; }
  .entity-name { font-family: monospace; font-size: 14px; font-weight: bold; }
  .column-text { font-family: monospace; font-size: 12px; }
  .pk { font-weight: bold; }
  .fk { font-style: italic; }
  .edge { stroke: #666; stroke-width: 1.5; fill: none; }
  .edge-label { font-family: monospace; font-size: 12px; fill: #666; paint-order: stroke; stroke: rgba(255,255,255,0.85); stroke-width: 3px; }
  .cardinality { font-family: monospace; font-size: 15px; font-weight: bold; fill: #333; paint-order: stroke; stroke: rgba(255,255,255,0.85); stroke-width: 4px; }
</style>
<line class="edge" x1="140" y1="204" x2="128" y2="284" />
<line class="edge" x1="128" y1="428" x2="80" y2="508" />
<line class="edge" x1="384" y1="428" x2="128" y2="508" />
<rect class="entity-bg" x="40" y="40" width="200" height="164" rx="4" />
<rect class="entity-header" x="40" y="40" width="200" height="28" rx="4" />
<rect class="entity-header" x="40" y="64" width="200" height="4" />
<text class="entity-name" x="140" y="59" text-anchor="middle">顧客</text>
<line x1="40" y1="68" x2="240" y2="68" stroke="#333" stroke-width="1" />
<text class="column-text pk" x="52" y="90">◆ 顧客ID: int</text>
<text class="column-text" x="52" y="110">  氏名: string</text>
<text class="column-text" x="52" y="130">  メールアドレス: string</text>
<text class="column-text" x="52" y="150">  電話番号: string</text>
<text class="column-text" x="52" y="170">  住所: string</text>
<text class="column-text" x="52" y="190">  登録日時: timestamp</text>
<rect class="entity-border" x="40" y="40" width="200" height="164" rx="4" />
<rect class="entity-bg" x="40" y="284" width="176" height="144" rx="4" />
<rect class="entity-header" x="40" y="284" width="176" height="28" rx="4" />
<rect class="entity-header" x="40" y="308" width="176" height="4" />
<text class="entity-name" x="128" y="303" text-anchor="middle">注文</text>
<line x1="40" y1="312" x2="216" y2="312" stroke="#333" stroke-width="1" />
<text class="column-text pk" x="52" y="334">◆ 注文ID: int</text>
<text class="column-text fk" x="52" y="354">  顧客ID: int</text>
<text class="column-text" x="52" y="374">  注文日時: timestamp</text>
<text class="column-text" x="52" y="394">  合計金額: decimal</text>
<text class="column-text" x="52" y="414">  ステータス: string</text>
<rect class="entity-border" x="40" y="284" width="176" height="144" rx="4" />
<rect class="entity-bg" x="316" y="284" width="136" height="144" rx="4" />
<rect class="entity-header" x="316" y="284" width="136" height="28" rx="4" />
<rect class="entity-header" x="316" y="308" width="136" height="4" />
<text class="entity-name" x="384" y="303" text-anchor="middle">商品</text>
<line x1="316" y1="312" x2="452" y2="312" stroke="#333" stroke-width="1" />
<text class="column-text pk" x="328" y="334">◆ 商品ID: int</text>
<text class="column-text" x="328" y="354">  商品名: string</text>
<text class="column-text" x="328" y="374">  説明: text</text>
<text class="column-text" x="328" y="394">  価格: decimal</text>
<text class="column-text" x="328" y="414">  在庫数: int</text>
<rect class="entity-border" x="316" y="284" width="136" height="144" rx="4" />
<rect class="entity-bg" x="40" y="508" width="128" height="144" rx="4" />
<rect class="entity-header" x="40" y="508" width="128" height="28" rx="4" />
<rect class="entity-header" x="40" y="532" width="128" height="4" />
<text class="entity-name" x="104" y="527" text-anchor="middle">注文明細</text>
<line x1="40" y1="536" x2="168" y2="536" stroke="#333" stroke-width="1" />
<text class="column-text pk" x="52" y="558">◆ 明細ID: int</text>
<text class="column-text fk" x="52" y="578">  注文ID: int</text>
<text class="column-text fk" x="52" y="598">  商品ID: int</text>
<text class="column-text" x="52" y="618">  数量: int</text>
<text class="column-text" x="52" y="638">  単価: decimal</text>
<rect class="entity-border" x="40" y="508" width="128" height="144" rx="4" />
<text class="cardinality" x="138.88744660302316" y="211.41702264651224" text-anchor="end" dominant-baseline="hanging">1</text>
<text class="cardinality" x="129.11255339697684" y="276.58297735348776" text-anchor="start" dominant-baseline="alphabetic">*</text>
<text class="edge-label" x="134" y="244" text-anchor="middle" dominant-baseline="middle">注文する</text>
<text class="cardinality" x="124.14128183429355" y="434.43119694284405" text-anchor="end" dominant-baseline="hanging">1</text>
<text class="cardinality" x="83.85871816570645" y="501.56880305715595" text-anchor="start" dominant-baseline="alphabetic">*</text>
<text class="cardinality" x="376.84140016473725" y="430.2370624485196" text-anchor="end" dominant-baseline="hanging">1</text>
<text class="cardinality" x="135.15859983526272" y="505.7629375514804" text-anchor="start" dominant-baseline="alphabetic">*</text>
</svg>
