<svg xmlns="http://www.w3.org/2000/svg" width="680" height="604" viewBox="0 0 680 604">
<style>
  .entity-bg { fill: #fff; }
  .entity-header { fill: #e0e0e0; }
  .entity-border { fill: none; stroke: #333; stroke-width: 1.5; }
  .entity-name { font-family: monospace; font-size: 14px; font-weight: bold; }
  .column-text { font-family: monospace; font-size: 12px; }
  .pk { font-weight: bold; }
  .fk { font-style: italic; }
  .edge { stroke: #666; stroke-width: 1.5; fill: none; }
  .edge-label { font-family: monospace; font-size: 14px; fill: #555; paint-order: stroke; stroke: rgba(255,255,255,0.85); stroke-width: 3px; }
  .cardinality-bg { fill: rgba(240,240,240,0.7); }
  .cardinality { font-family: monospace; font-size: 15px; font-weight: bold; fill: #333; }
</style>
<path class="edge" d="M 60 124 L 60 233 Q 60 241 68 241 L 100 241 Q 108 241 108 249 L 108 286" />
<path class="edge" d="M 140 124 L 140 185 Q 140 193 148 193 L 332 193 Q 340 193 340 201 L 340 286" />
<path class="edge" d="M 180 124 L 180 161 Q 180 169 188 169 L 564 169 Q 572 169 572 177 L 572 286" />
<path class="edge" d="M 100 124 L 100 213 Q 100 217 104 217 L 104 217 Q 108 217 108 221 L 108 480" />
<rect class="entity-bg" x="40" y="40" width="160" height="84" rx="4" />
<rect class="entity-header" x="40" y="40" width="160" height="28" rx="4" />
<rect class="entity-header" x="40" y="64" width="160" height="4" />
<text class="entity-name" x="120" y="59" text-anchor="middle">Person</text>
<line x1="40" y1="68" x2="200" y2="68" stroke="#333" stroke-width="1" />
<text class="column-text pk" x="52" y="90">◆ id: int</text>
<text class="column-text" x="52" y="110">  name: string</text>
<rect class="entity-border" x="40" y="40" width="160" height="84" rx="4" />
<rect class="entity-bg" x="40" y="286" width="136" height="104" rx="4" />
<rect class="entity-header" x="40" y="286" width="136" height="28" rx="4" />
<rect class="entity-header" x="40" y="310" width="136" height="4" />
<text class="entity-name" x="108" y="305" text-anchor="middle">Passport</text>
<line x1="40" y1="314" x2="176" y2="314" stroke="#333" stroke-width="1" />
<text class="column-text pk" x="52" y="336">◆ id: int</text>
<text class="column-text fk" x="52" y="356">  person_id: int</text>
<text class="column-text" x="52" y="376">  number: string</text>
<rect class="entity-border" x="40" y="286" width="136" height="104" rx="4" />
<rect class="entity-bg" x="276" y="286" width="128" height="84" rx="4" />
<rect class="entity-header" x="276" y="286" width="128" height="28" rx="4" />
<rect class="entity-header" x="276" y="310" width="128" height="4" />
<text class="entity-name" x="340" y="305" text-anchor="middle">Car</text>
<line x1="276" y1="314" x2="404" y2="314" stroke="#333" stroke-width="1" />
<text class="column-text pk" x="288" y="336">◆ id: int</text>
<text class="column-text fk" x="288" y="356">  owner_id: int</text>
<rect class="entity-border" x="276" y="286" width="128" height="84" rx="4" />
<rect class="entity-bg" x="504" y="286" width="136" height="84" rx="4" />
<rect class="entity-header" x="504" y="286" width="136" height="28" rx="4" />
<rect class="entity-header" x="504" y="310" width="136" height="4" />
<text class="entity-name" x="572" y="305" text-anchor="middle">License</text>
<line x1="504" y1="314" x2="640" y2="314" stroke="#333" stroke-width="1" />
<text class="column-text pk" x="516" y="336">◆ id: int</text>
<text class="column-text fk" x="516" y="356">  person_id: int</text>
<rect class="entity-border" x="504" y="286" width="136" height="84" rx="4" />
<rect class="entity-bg" x="40" y="480" width="136" height="84" rx="4" />
<rect class="entity-header" x="40" y="480" width="136" height="28" rx="4" />
<rect class="entity-header" x="40" y="504" width="136" height="4" />
<text class="entity-name" x="108" y="499" text-anchor="middle">Child</text>
<line x1="40" y1="508" x2="176" y2="508" stroke="#333" stroke-width="1" />
<text class="column-text pk" x="52" y="530">◆ id: int</text>
<text class="column-text fk" x="52" y="550">  parent_id: int</text>
<rect class="entity-border" x="40" y="480" width="136" height="84" rx="4" />
<rect class="cardinality-bg" x="53.5" y="126.0" width="13.0" height="19.0" rx="2" />
<text class="cardinality" x="60" y="135.5" text-anchor="middle" dominant-baseline="middle">1</text>
<rect class="cardinality-bg" x="88.0" y="265.0" width="40.0" height="19.0" rx="2" />
<text class="cardinality" x="108" y="274.5" text-anchor="middle" dominant-baseline="middle">0..1</text>
<text class="edge-label" x="84" y="237" text-anchor="middle" dominant-baseline="alphabetic">has</text>
<rect class="cardinality-bg" x="120.0" y="126.0" width="40.0" height="19.0" rx="2" />
<text class="cardinality" x="140" y="135.5" text-anchor="middle" dominant-baseline="middle">0..1</text>
<rect class="cardinality-bg" x="333.5" y="265.0" width="13.0" height="19.0" rx="2" />
<text class="cardinality" x="340" y="274.5" text-anchor="middle" dominant-baseline="middle">*</text>
<text class="edge-label" x="240" y="189" text-anchor="middle" dominant-baseline="alphabetic">owns</text>
<rect class="cardinality-bg" x="173.5" y="126.0" width="13.0" height="19.0" rx="2" />
<text class="cardinality" x="180" y="135.5" text-anchor="middle" dominant-baseline="middle">1</text>
<rect class="cardinality-bg" x="552.0" y="265.0" width="40.0" height="19.0" rx="2" />
<text class="cardinality" x="572" y="274.5" text-anchor="middle" dominant-baseline="middle">1..*</text>
<text class="edge-label" x="376" y="165" text-anchor="middle" dominant-baseline="alphabetic">holds</text>
<rect class="cardinality-bg" x="80.0" y="126.0" width="40.0" height="19.0" rx="2" />
<text class="cardinality" x="100" y="135.5" text-anchor="middle" dominant-baseline="middle">0..1</text>
<rect class="cardinality-bg" x="88.0" y="459.0" width="40.0" height="19.0" rx="2" />
<text class="cardinality" x="108" y="468.5" text-anchor="middle" dominant-baseline="middle">1..*</text>
<text class="edge-label" x="104" y="213" text-anchor="middle" dominant-baseline="alphabetic">parents</text>
</svg>
