<svg xmlns="http://www.w3.org/2000/svg" width="680" height="592" viewBox="0 0 680 592">
<style>
  .entity-bg { fill: #fff; }
  .entity-header { fill: #e0e0e0; }
  .entity-border { fill: none; stroke: #333; stroke-width: 1.5; }
  .entity-name { font-family: monospace; font-size: 14px; font-weight: bold; }
  .column-text { font-family: monospace; font-size: 12px; }
  .pk { font-weight: bold; }
  .fk { font-style: italic; }
  .edge { stroke: #666; stroke-width: 1.5; fill: none; }
  .edge-label { font-family: monospace; font-size: 12px; fill: #666; paint-order: stroke; stroke: rgba(255,255,255,0.85); stroke-width: 3px; }
  .cardinality { font-family: monospace; font-size: 15px; font-weight: bold; fill: #333; paint-order: stroke; stroke: rgba(255,255,255,0.85); stroke-width: 4px; }
</style>
<path class="edge" d="M 64 124 L 64 161 Q 64 169 72 169 L 100 169 Q 108 169 108 177 L 108 274" />
<path class="edge" d="M 112 124 L 112 181 Q 112 189 120 189 L 332 189 Q 340 189 340 197 L 340 274" />
<path class="edge" d="M 136 124 L 136 201 Q 136 209 144 209 L 564 209 Q 572 209 572 217 L 572 274" />
<path class="edge" d="M 88 124 L 88 221 Q 88 229 96 229 L 100 229 Q 108 229 108 237 L 108 468" />
<rect class="entity-bg" x="40" y="40" width="120" height="84" rx="4" />
<rect class="entity-header" x="40" y="40" width="120" height="28" rx="4" />
<rect class="entity-header" x="40" y="64" width="120" height="4" />
<text class="entity-name" x="100" y="59" text-anchor="middle">Person</text>
<line x1="40" y1="68" x2="160" y2="68" stroke="#333" stroke-width="1" />
<text class="column-text pk" x="52" y="90">◆ id: int</text>
<text class="column-text" x="52" y="110">  name: string</text>
<rect class="entity-border" x="40" y="40" width="120" height="84" rx="4" />
<rect class="entity-bg" x="40" y="274" width="136" height="104" rx="4" />
<rect class="entity-header" x="40" y="274" width="136" height="28" rx="4" />
<rect class="entity-header" x="40" y="298" width="136" height="4" />
<text class="entity-name" x="108" y="293" text-anchor="middle">Passport</text>
<line x1="40" y1="302" x2="176" y2="302" stroke="#333" stroke-width="1" />
<text class="column-text pk" x="52" y="324">◆ id: int</text>
<text class="column-text fk" x="52" y="344">  person_id: int</text>
<text class="column-text" x="52" y="364">  number: string</text>
<rect class="entity-border" x="40" y="274" width="136" height="104" rx="4" />
<rect class="entity-bg" x="276" y="274" width="128" height="84" rx="4" />
<rect class="entity-header" x="276" y="274" width="128" height="28" rx="4" />
<rect class="entity-header" x="276" y="298" width="128" height="4" />
<text class="entity-name" x="340" y="293" text-anchor="middle">Car</text>
<line x1="276" y1="302" x2="404" y2="302" stroke="#333" stroke-width="1" />
<text class="column-text pk" x="288" y="324">◆ id: int</text>
<text class="column-text fk" x="288" y="344">  owner_id: int</text>
<rect class="entity-border" x="276" y="274" width="128" height="84" rx="4" />
<rect class="entity-bg" x="504" y="274" width="136" height="84" rx="4" />
<rect class="entity-header" x="504" y="274" width="136" height="28" rx="4" />
<rect class="entity-header" x="504" y="298" width="136" height="4" />
<text class="entity-name" x="572" y="293" text-anchor="middle">License</text>
<line x1="504" y1="302" x2="640" y2="302" stroke="#333" stroke-width="1" />
<text class="column-text pk" x="516" y="324">◆ id: int</text>
<text class="column-text fk" x="516" y="344">  person_id: int</text>
<rect class="entity-border" x="504" y="274" width="136" height="84" rx="4" />
<rect class="entity-bg" x="40" y="468" width="136" height="84" rx="4" />
<rect class="entity-header" x="40" y="468" width="136" height="28" rx="4" />
<rect class="entity-header" x="40" y="492" width="136" height="4" />
<text class="entity-name" x="108" y="487" text-anchor="middle">Child</text>
<line x1="40" y1="496" x2="176" y2="496" stroke="#333" stroke-width="1" />
<text class="column-text pk" x="52" y="518">◆ id: int</text>
<text class="column-text fk" x="52" y="538">  parent_id: int</text>
<rect class="entity-border" x="40" y="468" width="136" height="84" rx="4" />
<text class="cardinality" x="71.5" y="131.5" text-anchor="end" dominant-baseline="middle">1</text>
<text class="cardinality" x="100.5" y="266.5" text-anchor="start" dominant-baseline="middle">0..1</text>
<text class="edge-label" x="86" y="165" text-anchor="middle" dominant-baseline="alphabetic">has</text>
<text class="cardinality" x="119.5" y="131.5" text-anchor="end" dominant-baseline="middle">0..1</text>
<text class="cardinality" x="332.5" y="266.5" text-anchor="start" dominant-baseline="middle">*</text>
<text class="edge-label" x="226" y="185" text-anchor="middle" dominant-baseline="alphabetic">owns</text>
<text class="cardinality" x="143.5" y="131.5" text-anchor="end" dominant-baseline="middle">1</text>
<text class="cardinality" x="564.5" y="266.5" text-anchor="start" dominant-baseline="middle">1..*</text>
<text class="edge-label" x="354" y="205" text-anchor="middle" dominant-baseline="alphabetic">holds</text>
<text class="cardinality" x="95.5" y="131.5" text-anchor="end" dominant-baseline="middle">0..1</text>
<text class="cardinality" x="100.5" y="460.5" text-anchor="start" dominant-baseline="middle">1..*</text>
<text class="edge-label" x="98" y="225" text-anchor="middle" dominant-baseline="alphabetic">parents</text>
</svg>
