<svg xmlns="http://www.w3.org/2000/svg" width="420" height="492" viewBox="0 0 420 492">
<style>
  .entity-bg { fill: #fff; }
  .entity-header { fill: #e0e0e0; }
  .entity-border { fill: none; stroke: #333; stroke-width: 1.5; }
  .entity-name { font-family: monospace; font-size: 14px; font-weight: bold; }
  .column-text { font-family: monospace; font-size: 12px; }
  .pk { font-weight: bold; }
  .fk { font-style: italic; }
  .edge { stroke: #666; stroke-width: 1.5; fill: none; }
  .edge-label { font-family: monospace; font-size: 12px; fill: #666; paint-order: stroke; stroke: rgba(255,255,255,0.85); stroke-width: 3px; }
  .cardinality { font-family: monospace; font-size: 15px; font-weight: bold; fill: #333; paint-order: stroke; stroke: rgba(255,255,255,0.85); stroke-width: 4px; }
</style>
<line class="edge" x1="100" y1="124" x2="92" y2="204" />
<text class="cardinality" x="99.25372210734251" y="131.4627789265749" text-anchor="end" dominant-baseline="hanging">1</text>
<text class="cardinality" x="92.74627789265749" y="196.5372210734251" text-anchor="start" dominant-baseline="alphabetic">*</text>
<rect class="entity-bg" x="40" y="40" width="120" height="84" rx="4" />
<rect class="entity-header" x="40" y="40" width="120" height="28" rx="4" />
<rect class="entity-header" x="40" y="64" width="120" height="4" />
<text class="entity-name" x="100" y="59" text-anchor="middle">ConnectedA</text>
<line x1="40" y1="68" x2="160" y2="68" stroke="#333" stroke-width="1" />
<text class="column-text pk" x="52" y="90">◆ id: int</text>
<text class="column-text" x="52" y="110">  name: string</text>
<rect class="entity-border" x="40" y="40" width="120" height="84" rx="4" />
<rect class="entity-bg" x="260" y="40" width="120" height="84" rx="4" />
<rect class="entity-header" x="260" y="40" width="120" height="28" rx="4" />
<rect class="entity-header" x="260" y="64" width="120" height="4" />
<text class="entity-name" x="320" y="59" text-anchor="middle">OrphanX</text>
<line x1="260" y1="68" x2="380" y2="68" stroke="#333" stroke-width="1" />
<text class="column-text pk" x="272" y="90">◆ id: int</text>
<text class="column-text" x="272" y="110">  data: string</text>
<rect class="entity-border" x="260" y="40" width="120" height="84" rx="4" />
<rect class="entity-bg" x="40" y="204" width="104" height="84" rx="4" />
<rect class="entity-header" x="40" y="204" width="104" height="28" rx="4" />
<rect class="entity-header" x="40" y="228" width="104" height="4" />
<text class="entity-name" x="92" y="223" text-anchor="middle">ConnectedB</text>
<line x1="40" y1="232" x2="144" y2="232" stroke="#333" stroke-width="1" />
<text class="column-text pk" x="52" y="254">◆ id: int</text>
<text class="column-text fk" x="52" y="274">  a_id: int</text>
<rect class="entity-border" x="40" y="204" width="104" height="84" rx="4" />
<rect class="entity-bg" x="244" y="204" width="104" height="84" rx="4" />
<rect class="entity-header" x="244" y="204" width="104" height="28" rx="4" />
<rect class="entity-header" x="244" y="228" width="104" height="4" />
<text class="entity-name" x="296" y="223" text-anchor="middle">OrphanY</text>
<line x1="244" y1="232" x2="348" y2="232" stroke="#333" stroke-width="1" />
<text class="column-text pk" x="256" y="254">◆ id: int</text>
<text class="column-text" x="256" y="274">  value: int</text>
<rect class="entity-border" x="244" y="204" width="104" height="84" rx="4" />
<rect class="entity-bg" x="40" y="368" width="128" height="84" rx="4" />
<rect class="entity-header" x="40" y="368" width="128" height="28" rx="4" />
<rect class="entity-header" x="40" y="392" width="128" height="4" />
<text class="entity-name" x="104" y="387" text-anchor="middle">OrphanZ</text>
<line x1="40" y1="396" x2="168" y2="396" stroke="#333" stroke-width="1" />
<text class="column-text pk" x="52" y="418">◆ id: int</text>
<text class="column-text" x="52" y="438">  flag: boolean</text>
<rect class="entity-border" x="40" y="368" width="128" height="84" rx="4" />
</svg>
