<svg xmlns="http://www.w3.org/2000/svg" width="420" height="512" viewBox="0 0 420 512">
<style>
  .entity-bg { fill: #fff; }
  .entity-header { fill: #e0e0e0; }
  .entity-border { fill: none; stroke: #333; stroke-width: 1.5; }
  .entity-name { font-family: monospace; font-size: 14px; font-weight: bold; }
  .column-text { font-family: monospace; font-size: 12px; }
  .pk { font-weight: bold; }
  .fk { font-style: italic; }
  .edge { stroke: #666; stroke-width: 1.5; fill: none; }
  .edge-label { font-family: monospace; font-size: 12px; fill: #666; paint-order: stroke; stroke: rgba(255,255,255,0.85); stroke-width: 3px; }
  .cardinality { font-family: monospace; font-size: 15px; font-weight: bold; fill: #333; paint-order: stroke; stroke: rgba(255,255,255,0.85); stroke-width: 4px; }
</style>
<path class="edge" d="M 100 124 L 100 165 Q 100 169 96 169 L 96 169 Q 92 169 92 173 L 92 214" />
<rect class="entity-bg" x="40" y="40" width="120" height="84" rx="4" />
<rect class="entity-header" x="40" y="40" width="120" height="28" rx="4" />
<rect class="entity-header" x="40" y="64" width="120" height="4" />
<text class="entity-name" x="100" y="59" text-anchor="middle">ConnectedA</text>
<line x1="40" y1="68" x2="160" y2="68" stroke="#333" stroke-width="1" />
<text class="column-text pk" x="52" y="90">◆ id: int</text>
<text class="column-text" x="52" y="110">  name: string</text>
<rect class="entity-border" x="40" y="40" width="120" height="84" rx="4" />
<rect class="entity-bg" x="260" y="40" width="120" height="84" rx="4" />
<rect class="entity-header" x="260" y="40" width="120" height="28" rx="4" />
<rect class="entity-header" x="260" y="64" width="120" height="4" />
<text class="entity-name" x="320" y="59" text-anchor="middle">OrphanX</text>
<line x1="260" y1="68" x2="380" y2="68" stroke="#333" stroke-width="1" />
<text class="column-text pk" x="272" y="90">◆ id: int</text>
<text class="column-text" x="272" y="110">  data: string</text>
<rect class="entity-border" x="260" y="40" width="120" height="84" rx="4" />
<rect class="entity-bg" x="40" y="214" width="104" height="84" rx="4" />
<rect class="entity-header" x="40" y="214" width="104" height="28" rx="4" />
<rect class="entity-header" x="40" y="238" width="104" height="4" />
<text class="entity-name" x="92" y="233" text-anchor="middle">ConnectedB</text>
<line x1="40" y1="242" x2="144" y2="242" stroke="#333" stroke-width="1" />
<text class="column-text pk" x="52" y="264">◆ id: int</text>
<text class="column-text fk" x="52" y="284">  a_id: int</text>
<rect class="entity-border" x="40" y="214" width="104" height="84" rx="4" />
<rect class="entity-bg" x="244" y="214" width="104" height="84" rx="4" />
<rect class="entity-header" x="244" y="214" width="104" height="28" rx="4" />
<rect class="entity-header" x="244" y="238" width="104" height="4" />
<text class="entity-name" x="296" y="233" text-anchor="middle">OrphanY</text>
<line x1="244" y1="242" x2="348" y2="242" stroke="#333" stroke-width="1" />
<text class="column-text pk" x="256" y="264">◆ id: int</text>
<text class="column-text" x="256" y="284">  value: int</text>
<rect class="entity-border" x="244" y="214" width="104" height="84" rx="4" />
<rect class="entity-bg" x="40" y="388" width="128" height="84" rx="4" />
<rect class="entity-header" x="40" y="388" width="128" height="28" rx="4" />
<rect class="entity-header" x="40" y="412" width="128" height="4" />
<text class="entity-name" x="104" y="407" text-anchor="middle">OrphanZ</text>
<line x1="40" y1="416" x2="168" y2="416" stroke="#333" stroke-width="1" />
<text class="column-text pk" x="52" y="438">◆ id: int</text>
<text class="column-text" x="52" y="458">  flag: boolean</text>
<rect class="entity-border" x="40" y="388" width="128" height="84" rx="4" />
<text class="cardinality" x="107.5" y="131.5" text-anchor="end" dominant-baseline="middle">1</text>
<text class="cardinality" x="84.5" y="206.5" text-anchor="start" dominant-baseline="middle">*</text>
</svg>
