<svg xmlns="http://www.w3.org/2000/svg" width="1204" height="1192" viewBox="0 0 1204 1192">
<style>
  .entity-bg { fill: #fff; }
  .entity-header { fill: #e0e0e0; }
  .entity-border { fill: none; stroke: #333; stroke-width: 1.5; }
  .entity-name { font-family: monospace; font-size: 14px; font-weight: bold; }
  .column-text { font-family: monospace; font-size: 12px; }
  .pk { font-weight: bold; }
  .fk { font-style: italic; }
  .edge { stroke: #666; stroke-width: 1.5; fill: none; }
  .edge-label { font-family: monospace; font-size: 12px; fill: #666; paint-order: stroke; stroke: rgba(255,255,255,0.85); stroke-width: 3px; }
  .cardinality { font-family: monospace; font-size: 15px; font-weight: bold; fill: #333; paint-order: stroke; stroke: rgba(255,255,255,0.85); stroke-width: 4px; }
</style>
<path class="edge" d="M 576 142 L 534 142 Q 526 142 526 150 L 526 154 Q 526 162 518 162 L 476 162" />
<path class="edge" d="M 708 244 L 708 321 Q 708 329 716 329 L 1060 329 Q 1068 329 1068 337 L 1068 494" />
<path class="edge" d="M 660 244 L 660 369 Q 660 377 652 377 L 504 377 Q 496 377 496 385 L 496 494" />
<path class="edge" d="M 684 244 L 684 345 Q 684 353 692 353 L 780 353 Q 788 353 788 361 L 788 494" />
<path class="edge" d="M 200 83.19999999999999 L 217 83.19999999999999 Q 225 83.19999999999999 225 91.19999999999999 L 225 132.8 Q 225 140.8 217 140.8 L 200 140.8" />
<path class="edge" d="M 120 184 L 120 441 Q 120 449 128 449 L 144 449 Q 152 449 152 457 L 152 494" />
<path class="edge" d="M 116 738 L 116 923 L 116 923 L 116 968" />
<path class="edge" d="M 164 738 L 164 867 Q 164 875 172 875 L 620 875 Q 628 875 628 883 L 628 968" />
<path class="edge" d="M 140 738 L 140 891 Q 140 899 148 899 L 360 899 Q 368 899 368 907 L 368 968" />
<path class="edge" d="M 188 494 L 188 412 Q 188 404 196 404 L 756 404 Q 764 404 764 412 L 764 494" />
<path class="edge" d="M 1068 618 L 1068 795 Q 1068 803 1060 803 L 660 803 Q 652 803 652 811 L 652 968" />
<path class="edge" d="M 460 758 L 460 843 Q 460 851 452 851 L 400 851 Q 392 851 392 859 L 392 968" />
<path class="edge" d="M 484 758 L 484 819 Q 484 827 492 827 L 904 827 Q 912 827 912 835 L 912 968" />
<path class="edge" d="M 376 284 L 376 417 Q 376 425 384 425 L 440 425 Q 448 425 448 433 L 448 494" />
<path class="edge" d="M 400 284 L 400 393 Q 400 401 408 401 L 464 401 Q 472 401 472 409 L 472 494" />
<rect class="entity-bg" x="40" y="40" width="160" height="144" rx="4" />
<rect class="entity-header" x="40" y="40" width="160" height="28" rx="4" />
<rect class="entity-header" x="40" y="64" width="160" height="4" />
<text class="entity-name" x="120" y="59" text-anchor="middle">Category</text>
<line x1="40" y1="68" x2="200" y2="68" stroke="#333" stroke-width="1" />
<text class="column-text pk" x="52" y="90">◆ id: int</text>
<text class="column-text fk" x="52" y="110">  parent_id: int</text>
<text class="column-text" x="52" y="130">  name: string</text>
<text class="column-text" x="52" y="150">  slug: string</text>
<text class="column-text" x="52" y="170">  description: text</text>
<rect class="entity-border" x="40" y="40" width="160" height="144" rx="4" />
<rect class="entity-bg" x="300" y="40" width="176" height="244" rx="4" />
<rect class="entity-header" x="300" y="40" width="176" height="28" rx="4" />
<rect class="entity-header" x="300" y="64" width="176" height="4" />
<text class="entity-name" x="388" y="59" text-anchor="middle">Address</text>
<line x1="300" y1="68" x2="476" y2="68" stroke="#333" stroke-width="1" />
<text class="column-text pk" x="312" y="90">◆ id: int</text>
<text class="column-text fk" x="312" y="110">  customer_id: int</text>
<text class="column-text" x="312" y="130">  type: string</text>
<text class="column-text" x="312" y="150">  line1: string</text>
<text class="column-text" x="312" y="170">  line2: string</text>
<text class="column-text" x="312" y="190">  city: string</text>
<text class="column-text" x="312" y="210">  state: string</text>
<text class="column-text" x="312" y="230">  postal_code: string</text>
<text class="column-text" x="312" y="250">  country: string</text>
<text class="column-text" x="312" y="270">  is_default: boolean</text>
<rect class="entity-border" x="300" y="40" width="176" height="244" rx="4" />
<rect class="entity-bg" x="576" y="40" width="192" height="204" rx="4" />
<rect class="entity-header" x="576" y="40" width="192" height="28" rx="4" />
<rect class="entity-header" x="576" y="64" width="192" height="4" />
<text class="entity-name" x="672" y="59" text-anchor="middle">Customer</text>
<line x1="576" y1="68" x2="768" y2="68" stroke="#333" stroke-width="1" />
<text class="column-text pk" x="588" y="90">◆ id: int</text>
<text class="column-text" x="588" y="110">  email: string</text>
<text class="column-text" x="588" y="130">  password_hash: string</text>
<text class="column-text" x="588" y="150">  first_name: string</text>
<text class="column-text" x="588" y="170">  last_name: string</text>
<text class="column-text" x="588" y="190">  phone: string</text>
<text class="column-text" x="588" y="210">  created_at: timestamp</text>
<text class="column-text" x="588" y="230">  updated_at: timestamp</text>
<rect class="entity-border" x="576" y="40" width="192" height="204" rx="4" />
<rect class="entity-bg" x="40" y="494" width="224" height="244" rx="4" />
<rect class="entity-header" x="40" y="494" width="224" height="28" rx="4" />
<rect class="entity-header" x="40" y="518" width="224" height="4" />
<text class="entity-name" x="152" y="513" text-anchor="middle">Product</text>
<line x1="40" y1="522" x2="264" y2="522" stroke="#333" stroke-width="1" />
<text class="column-text pk" x="52" y="544">◆ id: int</text>
<text class="column-text fk" x="52" y="564">  category_id: int</text>
<text class="column-text" x="52" y="584">  sku: string</text>
<text class="column-text" x="52" y="604">  name: string</text>
<text class="column-text" x="52" y="624">  description: text</text>
<text class="column-text" x="52" y="644">  price: decimal</text>
<text class="column-text" x="52" y="664">  compare_at_price: decimal</text>
<text class="column-text" x="52" y="684">  cost: decimal</text>
<text class="column-text" x="52" y="704">  quantity: int</text>
<text class="column-text" x="52" y="724">  is_active: boolean</text>
<rect class="entity-border" x="40" y="494" width="224" height="244" rx="4" />
<rect class="entity-bg" x="364" y="494" width="216" height="264" rx="4" />
<rect class="entity-header" x="364" y="494" width="216" height="28" rx="4" />
<rect class="entity-header" x="364" y="518" width="216" height="4" />
<text class="entity-name" x="472" y="513" text-anchor="middle">Order</text>
<line x1="364" y1="522" x2="580" y2="522" stroke="#333" stroke-width="1" />
<text class="column-text pk" x="376" y="544">◆ id: int</text>
<text class="column-text fk" x="376" y="564">  customer_id: int</text>
<text class="column-text fk" x="376" y="584">  shipping_address_id: int</text>
<text class="column-text fk" x="376" y="604">  billing_address_id: int</text>
<text class="column-text" x="376" y="624">  status: string</text>
<text class="column-text" x="376" y="644">  subtotal: decimal</text>
<text class="column-text" x="376" y="664">  tax: decimal</text>
<text class="column-text" x="376" y="684">  shipping: decimal</text>
<text class="column-text" x="376" y="704">  total: decimal</text>
<text class="column-text" x="376" y="724">  notes: text</text>
<text class="column-text" x="376" y="744">  created_at: timestamp</text>
<rect class="entity-border" x="364" y="494" width="216" height="264" rx="4" />
<rect class="entity-bg" x="680" y="494" width="192" height="204" rx="4" />
<rect class="entity-header" x="680" y="494" width="192" height="28" rx="4" />
<rect class="entity-header" x="680" y="518" width="192" height="4" />
<text class="entity-name" x="776" y="513" text-anchor="middle">Review</text>
<line x1="680" y1="522" x2="872" y2="522" stroke="#333" stroke-width="1" />
<text class="column-text pk" x="692" y="544">◆ id: int</text>
<text class="column-text fk" x="692" y="564">  product_id: int</text>
<text class="column-text fk" x="692" y="584">  customer_id: int</text>
<text class="column-text" x="692" y="604">  rating: int</text>
<text class="column-text" x="692" y="624">  title: string</text>
<text class="column-text" x="692" y="644">  body: text</text>
<text class="column-text" x="692" y="664">  is_verified: boolean</text>
<text class="column-text" x="692" y="684">  created_at: timestamp</text>
<rect class="entity-border" x="680" y="494" width="192" height="204" rx="4" />
<rect class="entity-bg" x="972" y="494" width="192" height="124" rx="4" />
<rect class="entity-header" x="972" y="494" width="192" height="28" rx="4" />
<rect class="entity-header" x="972" y="518" width="192" height="4" />
<text class="entity-name" x="1068" y="513" text-anchor="middle">Cart</text>
<line x1="972" y1="522" x2="1164" y2="522" stroke="#333" stroke-width="1" />
<text class="column-text pk" x="984" y="544">◆ id: int</text>
<text class="column-text fk" x="984" y="564">  customer_id: int</text>
<text class="column-text" x="984" y="584">  created_at: timestamp</text>
<text class="column-text" x="984" y="604">  updated_at: timestamp</text>
<rect class="entity-border" x="972" y="494" width="192" height="124" rx="4" />
<rect class="entity-bg" x="40" y="968" width="152" height="144" rx="4" />
<rect class="entity-header" x="40" y="968" width="152" height="28" rx="4" />
<rect class="entity-header" x="40" y="992" width="152" height="4" />
<text class="entity-name" x="116" y="987" text-anchor="middle">ProductImage</text>
<line x1="40" y1="996" x2="192" y2="996" stroke="#333" stroke-width="1" />
<text class="column-text pk" x="52" y="1018">◆ id: int</text>
<text class="column-text fk" x="52" y="1038">  product_id: int</text>
<text class="column-text" x="52" y="1058">  url: string</text>
<text class="column-text" x="52" y="1078">  alt_text: string</text>
<text class="column-text" x="52" y="1098">  position: int</text>
<rect class="entity-border" x="40" y="968" width="152" height="144" rx="4" />
<rect class="entity-bg" x="292" y="968" width="176" height="164" rx="4" />
<rect class="entity-header" x="292" y="968" width="176" height="28" rx="4" />
<rect class="entity-header" x="292" y="992" width="176" height="4" />
<text class="entity-name" x="380" y="987" text-anchor="middle">OrderItem</text>
<line x1="292" y1="996" x2="468" y2="996" stroke="#333" stroke-width="1" />
<text class="column-text pk" x="304" y="1018">◆ id: int</text>
<text class="column-text fk" x="304" y="1038">  order_id: int</text>
<text class="column-text fk" x="304" y="1058">  product_id: int</text>
<text class="column-text" x="304" y="1078">  quantity: int</text>
<text class="column-text" x="304" y="1098">  unit_price: decimal</text>
<text class="column-text" x="304" y="1118">  total: decimal</text>
<rect class="entity-border" x="292" y="968" width="176" height="164" rx="4" />
<rect class="entity-bg" x="568" y="968" width="144" height="124" rx="4" />
<rect class="entity-header" x="568" y="968" width="144" height="28" rx="4" />
<rect class="entity-header" x="568" y="992" width="144" height="4" />
<text class="entity-name" x="640" y="987" text-anchor="middle">CartItem</text>
<line x1="568" y1="996" x2="712" y2="996" stroke="#333" stroke-width="1" />
<text class="column-text pk" x="580" y="1018">◆ id: int</text>
<text class="column-text fk" x="580" y="1038">  cart_id: int</text>
<text class="column-text fk" x="580" y="1058">  product_id: int</text>
<text class="column-text" x="580" y="1078">  quantity: int</text>
<rect class="entity-border" x="568" y="968" width="144" height="124" rx="4" />
<rect class="entity-bg" x="812" y="968" width="200" height="184" rx="4" />
<rect class="entity-header" x="812" y="968" width="200" height="28" rx="4" />
<rect class="entity-header" x="812" y="992" width="200" height="4" />
<text class="entity-name" x="912" y="987" text-anchor="middle">Payment</text>
<line x1="812" y1="996" x2="1012" y2="996" stroke="#333" stroke-width="1" />
<text class="column-text pk" x="824" y="1018">◆ id: int</text>
<text class="column-text fk" x="824" y="1038">  order_id: int</text>
<text class="column-text" x="824" y="1058">  method: string</text>
<text class="column-text" x="824" y="1078">  status: string</text>
<text class="column-text" x="824" y="1098">  amount: decimal</text>
<text class="column-text" x="824" y="1118">  transaction_id: string</text>
<text class="column-text" x="824" y="1138">  created_at: timestamp</text>
<rect class="entity-border" x="812" y="968" width="200" height="184" rx="4" />
<text class="cardinality" x="568.5" y="142" text-anchor="end" dominant-baseline="middle">1</text>
<text class="cardinality" x="483.5" y="162" text-anchor="start" dominant-baseline="middle">*</text>
<text class="cardinality" x="715.5" y="251.5" text-anchor="end" dominant-baseline="middle">1</text>
<text class="cardinality" x="1060.5" y="486.5" text-anchor="start" dominant-baseline="middle">0..1</text>
<text class="cardinality" x="667.5" y="251.5" text-anchor="end" dominant-baseline="middle">1</text>
<text class="cardinality" x="488.5" y="486.5" text-anchor="start" dominant-baseline="middle">*</text>
<text class="cardinality" x="691.5" y="251.5" text-anchor="end" dominant-baseline="middle">1</text>
<text class="cardinality" x="780.5" y="486.5" text-anchor="start" dominant-baseline="middle">*</text>
<text class="cardinality" x="232.5" y="83.19999999999999" text-anchor="start" dominant-baseline="middle">1</text>
<text class="cardinality" x="232.5" y="140.8" text-anchor="start" dominant-baseline="middle">*</text>
<text class="edge-label" x="232.5" y="112" text-anchor="start" dominant-baseline="middle">subcategory</text>
<text class="cardinality" x="127.5" y="191.5" text-anchor="end" dominant-baseline="middle">1</text>
<text class="cardinality" x="144.5" y="486.5" text-anchor="start" dominant-baseline="middle">*</text>
<text class="cardinality" x="123.5" y="745.5" text-anchor="end" dominant-baseline="middle">1</text>
<text class="cardinality" x="108.5" y="960.5" text-anchor="start" dominant-baseline="middle">*</text>
<text class="cardinality" x="171.5" y="745.5" text-anchor="end" dominant-baseline="middle">1</text>
<text class="cardinality" x="620.5" y="960.5" text-anchor="start" dominant-baseline="middle">*</text>
<text class="cardinality" x="147.5" y="745.5" text-anchor="end" dominant-baseline="middle">1</text>
<text class="cardinality" x="360.5" y="960.5" text-anchor="start" dominant-baseline="middle">*</text>
<text class="cardinality" x="195.5" y="486.5" text-anchor="start" dominant-baseline="middle">1</text>
<text class="cardinality" x="756.5" y="486.5" text-anchor="start" dominant-baseline="middle">*</text>
<text class="cardinality" x="1075.5" y="625.5" text-anchor="end" dominant-baseline="middle">1</text>
<text class="cardinality" x="644.5" y="960.5" text-anchor="start" dominant-baseline="middle">*</text>
<text class="cardinality" x="467.5" y="765.5" text-anchor="end" dominant-baseline="middle">1</text>
<text class="cardinality" x="384.5" y="960.5" text-anchor="start" dominant-baseline="middle">*</text>
<text class="cardinality" x="491.5" y="765.5" text-anchor="end" dominant-baseline="middle">1</text>
<text class="cardinality" x="904.5" y="960.5" text-anchor="start" dominant-baseline="middle">*</text>
<text class="cardinality" x="383.5" y="291.5" text-anchor="end" dominant-baseline="middle">1</text>
<text class="cardinality" x="440.5" y="486.5" text-anchor="start" dominant-baseline="middle">*</text>
<text class="edge-label" x="412" y="421" text-anchor="middle" dominant-baseline="alphabetic">ships to</text>
<text class="cardinality" x="407.5" y="291.5" text-anchor="end" dominant-baseline="middle">1</text>
<text class="cardinality" x="464.5" y="486.5" text-anchor="start" dominant-baseline="middle">*</text>
<text class="edge-label" x="436" y="397" text-anchor="middle" dominant-baseline="alphabetic">bills to</text>
</svg>
