<svg xmlns="http://www.w3.org/2000/svg" width="1204" height="1192" viewBox="0 0 1204 1192">
<style>
  .entity-bg { fill: #fff; }
  .entity-header { fill: #e0e0e0; }
  .entity-border { fill: none; stroke: #333; stroke-width: 1.5; }
  .entity-name { font-family: monospace; font-size: 14px; font-weight: bold; }
  .column-text { font-family: monospace; font-size: 12px; }
  .pk { font-weight: bold; }
  .fk { font-style: italic; }
  .edge { stroke: #666; stroke-width: 1.5; fill: none; }
  .edge-label-bg { fill: rgba(245,245,245,0.6); }
  .edge-label { font-family: monospace; font-size: 14px; fill: #555; }
  .cardinality-bg { fill: rgba(240,240,240,0.6); }
  .cardinality { font-family: monospace; font-size: 15px; font-weight: bold; fill: #333; }
</style>
<path class="edge" d="M 576 142 L 534 142 Q 526 142 526 150 L 526 154 Q 526 162 518 162 L 476 162" />
<path class="edge" d="M 732 244 L 732 321 Q 732 329 740 329 L 1060 329 Q 1068 329 1068 337 L 1068 494" />
<path class="edge" d="M 692 244 L 692 345 Q 692 353 700 353 L 796 353 Q 804 353 804 361 L 804 494" />
<path class="edge" d="M 652 244 L 652 369 Q 652 377 644 377 L 488 377 Q 480 377 480 385 L 480 494" />
<path class="edge" d="M 200 83.19999999999999 L 217 83.19999999999999 Q 225 83.19999999999999 225 91.19999999999999 L 225 132.8 Q 225 140.8 217 140.8 L 200 140.8" />
<path class="edge" d="M 120 184 L 120 441 Q 120 449 128 449 L 144 449 Q 152 449 152 457 L 152 494" />
<path class="edge" d="M 92 738 L 92 915 Q 92 923 100 923 L 108 923 Q 116 923 116 931 L 116 968" />
<path class="edge" d="M 212 738 L 212 867 Q 212 875 220 875 L 912 875 Q 920 875 920 883 L 920 968" />
<path class="edge" d="M 132 738 L 132 891 Q 132 899 140 899 L 352 899 Q 360 899 360 907 L 360 968" />
<path class="edge" d="M 264 616 L 306 616 Q 314 616 314 608 L 314 604 Q 314 596 322 596 L 364 596" />
<path class="edge" d="M 1068 618 L 1068 795 Q 1068 803 1060 803 L 968 803 Q 960 803 960 811 L 960 968" />
<path class="edge" d="M 744 758 L 744 843 Q 744 851 736 851 L 408 851 Q 400 851 400 859 L 400 968" />
<path class="edge" d="M 784 758 L 784 819 Q 784 827 776 827 L 676 827 Q 668 827 668 835 L 668 968" />
<path class="edge" d="M 368 284 L 368 417 Q 368 425 376 425 L 716 425 Q 724 425 724 433 L 724 494" />
<path class="edge" d="M 408 284 L 408 393 Q 408 401 416 401 L 756 401 Q 764 401 764 409 L 764 494" />
<rect class="entity-bg" x="40" y="40" width="160" height="144" rx="4" />
<rect class="entity-header" x="40" y="40" width="160" height="28" rx="4" />
<rect class="entity-header" x="40" y="64" width="160" height="4" />
<text class="entity-name" x="120" y="59" text-anchor="middle">Category</text>
<line x1="40" y1="68" x2="200" y2="68" stroke="#333" stroke-width="1" />
<text class="column-text pk" x="52" y="90">◆ id: int</text>
<text class="column-text fk" x="52" y="110">  parent_id: int</text>
<text class="column-text" x="52" y="130">  name: string</text>
<text class="column-text" x="52" y="150">  slug: string</text>
<text class="column-text" x="52" y="170">  description: text</text>
<rect class="entity-border" x="40" y="40" width="160" height="144" rx="4" />
<rect class="entity-bg" x="300" y="40" width="176" height="244" rx="4" />
<rect class="entity-header" x="300" y="40" width="176" height="28" rx="4" />
<rect class="entity-header" x="300" y="64" width="176" height="4" />
<text class="entity-name" x="388" y="59" text-anchor="middle">Address</text>
<line x1="300" y1="68" x2="476" y2="68" stroke="#333" stroke-width="1" />
<text class="column-text pk" x="312" y="90">◆ id: int</text>
<text class="column-text fk" x="312" y="110">  customer_id: int</text>
<text class="column-text" x="312" y="130">  type: string</text>
<text class="column-text" x="312" y="150">  line1: string</text>
<text class="column-text" x="312" y="170">  line2: string</text>
<text class="column-text" x="312" y="190">  city: string</text>
<text class="column-text" x="312" y="210">  state: string</text>
<text class="column-text" x="312" y="230">  postal_code: string</text>
<text class="column-text" x="312" y="250">  country: string</text>
<text class="column-text" x="312" y="270">  is_default: boolean</text>
<rect class="entity-border" x="300" y="40" width="176" height="244" rx="4" />
<rect class="entity-bg" x="576" y="40" width="192" height="204" rx="4" />
<rect class="entity-header" x="576" y="40" width="192" height="28" rx="4" />
<rect class="entity-header" x="576" y="64" width="192" height="4" />
<text class="entity-name" x="672" y="59" text-anchor="middle">Customer</text>
<line x1="576" y1="68" x2="768" y2="68" stroke="#333" stroke-width="1" />
<text class="column-text pk" x="588" y="90">◆ id: int</text>
<text class="column-text" x="588" y="110">  email: string</text>
<text class="column-text" x="588" y="130">  password_hash: string</text>
<text class="column-text" x="588" y="150">  first_name: string</text>
<text class="column-text" x="588" y="170">  last_name: string</text>
<text class="column-text" x="588" y="190">  phone: string</text>
<text class="column-text" x="588" y="210">  created_at: timestamp</text>
<text class="column-text" x="588" y="230">  updated_at: timestamp</text>
<rect class="entity-border" x="576" y="40" width="192" height="204" rx="4" />
<rect class="entity-bg" x="40" y="494" width="224" height="244" rx="4" />
<rect class="entity-header" x="40" y="494" width="224" height="28" rx="4" />
<rect class="entity-header" x="40" y="518" width="224" height="4" />
<text class="entity-name" x="152" y="513" text-anchor="middle">Product</text>
<line x1="40" y1="522" x2="264" y2="522" stroke="#333" stroke-width="1" />
<text class="column-text pk" x="52" y="544">◆ id: int</text>
<text class="column-text fk" x="52" y="564">  category_id: int</text>
<text class="column-text" x="52" y="584">  sku: string</text>
<text class="column-text" x="52" y="604">  name: string</text>
<text class="column-text" x="52" y="624">  description: text</text>
<text class="column-text" x="52" y="644">  price: decimal</text>
<text class="column-text" x="52" y="664">  compare_at_price: decimal</text>
<text class="column-text" x="52" y="684">  cost: decimal</text>
<text class="column-text" x="52" y="704">  quantity: int</text>
<text class="column-text" x="52" y="724">  is_active: boolean</text>
<rect class="entity-border" x="40" y="494" width="224" height="244" rx="4" />
<rect class="entity-bg" x="364" y="494" width="192" height="204" rx="4" />
<rect class="entity-header" x="364" y="494" width="192" height="28" rx="4" />
<rect class="entity-header" x="364" y="518" width="192" height="4" />
<text class="entity-name" x="460" y="513" text-anchor="middle">Review</text>
<line x1="364" y1="522" x2="556" y2="522" stroke="#333" stroke-width="1" />
<text class="column-text pk" x="376" y="544">◆ id: int</text>
<text class="column-text fk" x="376" y="564">  product_id: int</text>
<text class="column-text fk" x="376" y="584">  customer_id: int</text>
<text class="column-text" x="376" y="604">  rating: int</text>
<text class="column-text" x="376" y="624">  title: string</text>
<text class="column-text" x="376" y="644">  body: text</text>
<text class="column-text" x="376" y="664">  is_verified: boolean</text>
<text class="column-text" x="376" y="684">  created_at: timestamp</text>
<rect class="entity-border" x="364" y="494" width="192" height="204" rx="4" />
<rect class="entity-bg" x="656" y="494" width="216" height="264" rx="4" />
<rect class="entity-header" x="656" y="494" width="216" height="28" rx="4" />
<rect class="entity-header" x="656" y="518" width="216" height="4" />
<text class="entity-name" x="764" y="513" text-anchor="middle">Order</text>
<line x1="656" y1="522" x2="872" y2="522" stroke="#333" stroke-width="1" />
<text class="column-text pk" x="668" y="544">◆ id: int</text>
<text class="column-text fk" x="668" y="564">  customer_id: int</text>
<text class="column-text fk" x="668" y="584">  shipping_address_id: int</text>
<text class="column-text fk" x="668" y="604">  billing_address_id: int</text>
<text class="column-text" x="668" y="624">  status: string</text>
<text class="column-text" x="668" y="644">  subtotal: decimal</text>
<text class="column-text" x="668" y="664">  tax: decimal</text>
<text class="column-text" x="668" y="684">  shipping: decimal</text>
<text class="column-text" x="668" y="704">  total: decimal</text>
<text class="column-text" x="668" y="724">  notes: text</text>
<text class="column-text" x="668" y="744">  created_at: timestamp</text>
<rect class="entity-border" x="656" y="494" width="216" height="264" rx="4" />
<rect class="entity-bg" x="972" y="494" width="192" height="124" rx="4" />
<rect class="entity-header" x="972" y="494" width="192" height="28" rx="4" />
<rect class="entity-header" x="972" y="518" width="192" height="4" />
<text class="entity-name" x="1068" y="513" text-anchor="middle">Cart</text>
<line x1="972" y1="522" x2="1164" y2="522" stroke="#333" stroke-width="1" />
<text class="column-text pk" x="984" y="544">◆ id: int</text>
<text class="column-text fk" x="984" y="564">  customer_id: int</text>
<text class="column-text" x="984" y="584">  created_at: timestamp</text>
<text class="column-text" x="984" y="604">  updated_at: timestamp</text>
<rect class="entity-border" x="972" y="494" width="192" height="124" rx="4" />
<rect class="entity-bg" x="40" y="968" width="152" height="144" rx="4" />
<rect class="entity-header" x="40" y="968" width="152" height="28" rx="4" />
<rect class="entity-header" x="40" y="992" width="152" height="4" />
<text class="entity-name" x="116" y="987" text-anchor="middle">ProductImage</text>
<line x1="40" y1="996" x2="192" y2="996" stroke="#333" stroke-width="1" />
<text class="column-text pk" x="52" y="1018">◆ id: int</text>
<text class="column-text fk" x="52" y="1038">  product_id: int</text>
<text class="column-text" x="52" y="1058">  url: string</text>
<text class="column-text" x="52" y="1078">  alt_text: string</text>
<text class="column-text" x="52" y="1098">  position: int</text>
<rect class="entity-border" x="40" y="968" width="152" height="144" rx="4" />
<rect class="entity-bg" x="292" y="968" width="176" height="164" rx="4" />
<rect class="entity-header" x="292" y="968" width="176" height="28" rx="4" />
<rect class="entity-header" x="292" y="992" width="176" height="4" />
<text class="entity-name" x="380" y="987" text-anchor="middle">OrderItem</text>
<line x1="292" y1="996" x2="468" y2="996" stroke="#333" stroke-width="1" />
<text class="column-text pk" x="304" y="1018">◆ id: int</text>
<text class="column-text fk" x="304" y="1038">  order_id: int</text>
<text class="column-text fk" x="304" y="1058">  product_id: int</text>
<text class="column-text" x="304" y="1078">  quantity: int</text>
<text class="column-text" x="304" y="1098">  unit_price: decimal</text>
<text class="column-text" x="304" y="1118">  total: decimal</text>
<rect class="entity-border" x="292" y="968" width="176" height="164" rx="4" />
<rect class="entity-bg" x="568" y="968" width="200" height="184" rx="4" />
<rect class="entity-header" x="568" y="968" width="200" height="28" rx="4" />
<rect class="entity-header" x="568" y="992" width="200" height="4" />
<text class="entity-name" x="668" y="987" text-anchor="middle">Payment</text>
<line x1="568" y1="996" x2="768" y2="996" stroke="#333" stroke-width="1" />
<text class="column-text pk" x="580" y="1018">◆ id: int</text>
<text class="column-text fk" x="580" y="1038">  order_id: int</text>
<text class="column-text" x="580" y="1058">  method: string</text>
<text class="column-text" x="580" y="1078">  status: string</text>
<text class="column-text" x="580" y="1098">  amount: decimal</text>
<text class="column-text" x="580" y="1118">  transaction_id: string</text>
<text class="column-text" x="580" y="1138">  created_at: timestamp</text>
<rect class="entity-border" x="568" y="968" width="200" height="184" rx="4" />
<rect class="entity-bg" x="868" y="968" width="144" height="124" rx="4" />
<rect class="entity-header" x="868" y="968" width="144" height="28" rx="4" />
<rect class="entity-header" x="868" y="992" width="144" height="4" />
<text class="entity-name" x="940" y="987" text-anchor="middle">CartItem</text>
<line x1="868" y1="996" x2="1012" y2="996" stroke="#333" stroke-width="1" />
<text class="column-text pk" x="880" y="1018">◆ id: int</text>
<text class="column-text fk" x="880" y="1038">  cart_id: int</text>
<text class="column-text fk" x="880" y="1058">  product_id: int</text>
<text class="column-text" x="880" y="1078">  quantity: int</text>
<rect class="entity-border" x="868" y="968" width="144" height="124" rx="4" />
<rect class="cardinality-bg" x="558.0" y="132.5" width="13.0" height="19.0" rx="2" />
<text class="cardinality" x="564.5" y="142" text-anchor="middle" dominant-baseline="middle">1</text>
<rect class="cardinality-bg" x="481.0" y="152.5" width="13.0" height="19.0" rx="2" />
<text class="cardinality" x="487.5" y="162" text-anchor="middle" dominant-baseline="middle">*</text>
<rect class="cardinality-bg" x="725.5" y="246.0" width="13.0" height="19.0" rx="2" />
<text class="cardinality" x="732" y="255.5" text-anchor="middle" dominant-baseline="middle">1</text>
<rect class="cardinality-bg" x="1048.0" y="473.0" width="40.0" height="19.0" rx="2" />
<text class="cardinality" x="1068" y="482.5" text-anchor="middle" dominant-baseline="middle">0..1</text>
<rect class="cardinality-bg" x="685.5" y="246.0" width="13.0" height="19.0" rx="2" />
<text class="cardinality" x="692" y="255.5" text-anchor="middle" dominant-baseline="middle">1</text>
<rect class="cardinality-bg" x="797.5" y="473.0" width="13.0" height="19.0" rx="2" />
<text class="cardinality" x="804" y="482.5" text-anchor="middle" dominant-baseline="middle">*</text>
<rect class="cardinality-bg" x="645.5" y="246.0" width="13.0" height="19.0" rx="2" />
<text class="cardinality" x="652" y="255.5" text-anchor="middle" dominant-baseline="middle">1</text>
<rect class="cardinality-bg" x="473.5" y="473.0" width="13.0" height="19.0" rx="2" />
<text class="cardinality" x="480" y="482.5" text-anchor="middle" dominant-baseline="middle">*</text>
<rect class="cardinality-bg" x="222.5" y="73.7" width="13.0" height="19.0" rx="2" />
<text class="cardinality" x="229" y="83.19999999999999" text-anchor="middle" dominant-baseline="middle">1</text>
<rect class="cardinality-bg" x="222.5" y="131.3" width="13.0" height="19.0" rx="2" />
<text class="cardinality" x="229" y="140.8" text-anchor="middle" dominant-baseline="middle">*</text>
<rect class="edge-label-bg" x="179.8" y="102.0" width="98.4" height="20.0" rx="2" />
<text class="edge-label" x="229" y="112" text-anchor="middle" dominant-baseline="middle">subcategory</text>
<rect class="cardinality-bg" x="113.5" y="186.0" width="13.0" height="19.0" rx="2" />
<text class="cardinality" x="120" y="195.5" text-anchor="middle" dominant-baseline="middle">1</text>
<rect class="cardinality-bg" x="145.5" y="473.0" width="13.0" height="19.0" rx="2" />
<text class="cardinality" x="152" y="482.5" text-anchor="middle" dominant-baseline="middle">*</text>
<rect class="cardinality-bg" x="85.5" y="740.0" width="13.0" height="19.0" rx="2" />
<text class="cardinality" x="92" y="749.5" text-anchor="middle" dominant-baseline="middle">1</text>
<rect class="cardinality-bg" x="109.5" y="947.0" width="13.0" height="19.0" rx="2" />
<text class="cardinality" x="116" y="956.5" text-anchor="middle" dominant-baseline="middle">*</text>
<rect class="cardinality-bg" x="205.5" y="740.0" width="13.0" height="19.0" rx="2" />
<text class="cardinality" x="212" y="749.5" text-anchor="middle" dominant-baseline="middle">1</text>
<rect class="cardinality-bg" x="913.5" y="947.0" width="13.0" height="19.0" rx="2" />
<text class="cardinality" x="920" y="956.5" text-anchor="middle" dominant-baseline="middle">*</text>
<rect class="cardinality-bg" x="125.5" y="740.0" width="13.0" height="19.0" rx="2" />
<text class="cardinality" x="132" y="749.5" text-anchor="middle" dominant-baseline="middle">1</text>
<rect class="cardinality-bg" x="353.5" y="947.0" width="13.0" height="19.0" rx="2" />
<text class="cardinality" x="360" y="956.5" text-anchor="middle" dominant-baseline="middle">*</text>
<rect class="cardinality-bg" x="269.0" y="606.5" width="13.0" height="19.0" rx="2" />
<text class="cardinality" x="275.5" y="616" text-anchor="middle" dominant-baseline="middle">1</text>
<rect class="cardinality-bg" x="346.0" y="586.5" width="13.0" height="19.0" rx="2" />
<text class="cardinality" x="352.5" y="596" text-anchor="middle" dominant-baseline="middle">*</text>
<rect class="cardinality-bg" x="1061.5" y="620.0" width="13.0" height="19.0" rx="2" />
<text class="cardinality" x="1068" y="629.5" text-anchor="middle" dominant-baseline="middle">1</text>
<rect class="cardinality-bg" x="953.5" y="947.0" width="13.0" height="19.0" rx="2" />
<text class="cardinality" x="960" y="956.5" text-anchor="middle" dominant-baseline="middle">*</text>
<rect class="cardinality-bg" x="737.5" y="760.0" width="13.0" height="19.0" rx="2" />
<text class="cardinality" x="744" y="769.5" text-anchor="middle" dominant-baseline="middle">1</text>
<rect class="cardinality-bg" x="393.5" y="947.0" width="13.0" height="19.0" rx="2" />
<text class="cardinality" x="400" y="956.5" text-anchor="middle" dominant-baseline="middle">*</text>
<rect class="cardinality-bg" x="777.5" y="760.0" width="13.0" height="19.0" rx="2" />
<text class="cardinality" x="784" y="769.5" text-anchor="middle" dominant-baseline="middle">1</text>
<rect class="cardinality-bg" x="661.5" y="947.0" width="13.0" height="19.0" rx="2" />
<text class="cardinality" x="668" y="956.5" text-anchor="middle" dominant-baseline="middle">*</text>
<rect class="cardinality-bg" x="361.5" y="286.0" width="13.0" height="19.0" rx="2" />
<text class="cardinality" x="368" y="295.5" text-anchor="middle" dominant-baseline="middle">1</text>
<rect class="cardinality-bg" x="717.5" y="473.0" width="13.0" height="19.0" rx="2" />
<text class="cardinality" x="724" y="482.5" text-anchor="middle" dominant-baseline="middle">*</text>
<rect class="edge-label-bg" x="509.4" y="415.0" width="73.2" height="20.0" rx="2" />
<text class="edge-label" x="546" y="425" text-anchor="middle" dominant-baseline="middle">ships to</text>
<rect class="cardinality-bg" x="401.5" y="286.0" width="13.0" height="19.0" rx="2" />
<text class="cardinality" x="408" y="295.5" text-anchor="middle" dominant-baseline="middle">1</text>
<rect class="cardinality-bg" x="757.5" y="473.0" width="13.0" height="19.0" rx="2" />
<text class="cardinality" x="764" y="482.5" text-anchor="middle" dominant-baseline="middle">*</text>
<rect class="edge-label-bg" x="549.4" y="391.0" width="73.2" height="20.0" rx="2" />
<text class="edge-label" x="586" y="401" text-anchor="middle" dominant-baseline="middle">bills to</text>
</svg>
