<svg xmlns="http://www.w3.org/2000/svg" width="508" height="656" viewBox="0 0 508 656">
<style>
  .entity-bg { fill: #fff; }
  .entity-header { fill: #e0e0e0; }
  .entity-border { fill: none; stroke: #333; stroke-width: 1.5; }
  .entity-name { font-family: monospace; font-size: 14px; font-weight: bold; }
  .column-text { font-family: monospace; font-size: 12px; }
  .pk { font-weight: bold; }
  .fk { font-style: italic; }
  .edge { stroke: #666; stroke-width: 1.5; fill: none; }
  .edge-label-bg { fill: rgba(245,245,245,0.85); }
  .edge-label { font-family: monospace; font-size: 14px; fill: #555; }
  .cardinality-bg { fill: rgba(240,240,240,0.7); }
  .cardinality { font-family: monospace; font-size: 15px; font-weight: bold; fill: #333; }
</style>
<path class="edge" d="M 104 144 L 104 181 Q 104 189 112 189 L 128 189 Q 136 189 136 197 L 136 234" />
<path class="edge" d="M 136 358 L 136 419 Q 136 427 128 427 L 100 427 Q 92 427 92 435 L 92 472" />
<path class="edge" d="M 400 338 L 400 395 Q 400 403 392 403 L 140 403 Q 132 403 132 411 L 132 472" />
<rect class="entity-bg" x="40" y="40" width="128" height="104" rx="4" />
<rect class="entity-header" x="40" y="40" width="128" height="28" rx="4" />
<rect class="entity-header" x="40" y="64" width="128" height="4" />
<text class="entity-name" x="104" y="59" text-anchor="middle">User</text>
<line x1="40" y1="68" x2="168" y2="68" stroke="#333" stroke-width="1" />
<text class="column-text pk" x="52" y="90">◆ id: int</text>
<text class="column-text" x="52" y="110">  name: string</text>
<text class="column-text" x="52" y="130">  email: string</text>
<rect class="entity-border" x="40" y="40" width="128" height="104" rx="4" />
<rect class="entity-bg" x="40" y="234" width="192" height="124" rx="4" />
<rect class="entity-header" x="40" y="234" width="192" height="28" rx="4" />
<rect class="entity-header" x="40" y="258" width="192" height="4" />
<text class="entity-name" x="136" y="253" text-anchor="middle">Order</text>
<line x1="40" y1="262" x2="232" y2="262" stroke="#333" stroke-width="1" />
<text class="column-text pk" x="52" y="284">◆ id: int</text>
<text class="column-text fk" x="52" y="304">  user_id: int</text>
<text class="column-text" x="52" y="324">  total: decimal</text>
<text class="column-text" x="52" y="344">  created_at: timestamp</text>
<rect class="entity-border" x="40" y="234" width="192" height="124" rx="4" />
<rect class="entity-bg" x="332" y="234" width="136" height="104" rx="4" />
<rect class="entity-header" x="332" y="234" width="136" height="28" rx="4" />
<rect class="entity-header" x="332" y="258" width="136" height="4" />
<text class="entity-name" x="400" y="253" text-anchor="middle">Product</text>
<line x1="332" y1="262" x2="468" y2="262" stroke="#333" stroke-width="1" />
<text class="column-text pk" x="344" y="284">◆ id: int</text>
<text class="column-text" x="344" y="304">  name: string</text>
<text class="column-text" x="344" y="324">  price: decimal</text>
<rect class="entity-border" x="332" y="234" width="136" height="104" rx="4" />
<rect class="entity-bg" x="40" y="472" width="144" height="144" rx="4" />
<rect class="entity-header" x="40" y="472" width="144" height="28" rx="4" />
<rect class="entity-header" x="40" y="496" width="144" height="4" />
<text class="entity-name" x="112" y="491" text-anchor="middle">OrderItem</text>
<line x1="40" y1="500" x2="184" y2="500" stroke="#333" stroke-width="1" />
<text class="column-text pk" x="52" y="522">◆ id: int</text>
<text class="column-text fk" x="52" y="542">  order_id: int</text>
<text class="column-text fk" x="52" y="562">  product_id: int</text>
<text class="column-text" x="52" y="582">  quantity: int</text>
<text class="column-text" x="52" y="602">  price: decimal</text>
<rect class="entity-border" x="40" y="472" width="144" height="144" rx="4" />
<rect class="cardinality-bg" x="97.5" y="146.0" width="13.0" height="19.0" rx="2" />
<text class="cardinality" x="104" y="155.5" text-anchor="middle" dominant-baseline="middle">1</text>
<rect class="cardinality-bg" x="129.5" y="213.0" width="13.0" height="19.0" rx="2" />
<text class="cardinality" x="136" y="222.5" text-anchor="middle" dominant-baseline="middle">*</text>
<rect class="edge-label-bg" x="91.8" y="179.0" width="56.4" height="20.0" rx="2" />
<text class="edge-label" x="120" y="189" text-anchor="middle" dominant-baseline="middle">places</text>
<rect class="cardinality-bg" x="129.5" y="360.0" width="13.0" height="19.0" rx="2" />
<text class="cardinality" x="136" y="369.5" text-anchor="middle" dominant-baseline="middle">1</text>
<rect class="cardinality-bg" x="85.5" y="451.0" width="13.0" height="19.0" rx="2" />
<text class="cardinality" x="92" y="460.5" text-anchor="middle" dominant-baseline="middle">*</text>
<rect class="cardinality-bg" x="393.5" y="340.0" width="13.0" height="19.0" rx="2" />
<text class="cardinality" x="400" y="349.5" text-anchor="middle" dominant-baseline="middle">1</text>
<rect class="cardinality-bg" x="125.5" y="451.0" width="13.0" height="19.0" rx="2" />
<text class="cardinality" x="132" y="460.5" text-anchor="middle" dominant-baseline="middle">*</text>
</svg>
