<svg xmlns="http://www.w3.org/2000/svg" width="508" height="652" viewBox="0 0 508 652">
<style>
  .entity-bg { fill: #fff; }
  .entity-header { fill: #e0e0e0; }
  .entity-border { fill: none; stroke: #333; stroke-width: 1.5; }
  .entity-name { font-family: monospace; font-size: 14px; font-weight: bold; }
  .column-text { font-family: monospace; font-size: 12px; }
  .pk { font-weight: bold; }
  .fk { font-style: italic; }
  .edge { stroke: #666; stroke-width: 1.5; fill: none; }
  .edge-label { font-family: monospace; font-size: 12px; fill: #666; paint-order: stroke; stroke: rgba(255,255,255,0.85); stroke-width: 3px; }
  .cardinality { font-family: monospace; font-size: 15px; font-weight: bold; fill: #333; paint-order: stroke; stroke: rgba(255,255,255,0.85); stroke-width: 4px; }
</style>
<path class="edge" d="M 104 144 L 104 181 Q 104 189 112 189 L 128 189 Q 136 189 136 197 L 136 234" />
<path class="edge" d="M 136 358 L 136 395 Q 136 403 128 403 L 108 403 Q 100 403 100 411 L 100 468" />
<path class="edge" d="M 400 338 L 400 415 Q 400 423 392 423 L 132 423 Q 124 423 124 431 L 124 468" />
<rect class="entity-bg" x="40" y="40" width="128" height="104" rx="4" />
<rect class="entity-header" x="40" y="40" width="128" height="28" rx="4" />
<rect class="entity-header" x="40" y="64" width="128" height="4" />
<text class="entity-name" x="104" y="59" text-anchor="middle">User</text>
<line x1="40" y1="68" x2="168" y2="68" stroke="#333" stroke-width="1" />
<text class="column-text pk" x="52" y="90">◆ id: int</text>
<text class="column-text" x="52" y="110">  name: string</text>
<text class="column-text" x="52" y="130">  email: string</text>
<rect class="entity-border" x="40" y="40" width="128" height="104" rx="4" />
<rect class="entity-bg" x="40" y="234" width="192" height="124" rx="4" />
<rect class="entity-header" x="40" y="234" width="192" height="28" rx="4" />
<rect class="entity-header" x="40" y="258" width="192" height="4" />
<text class="entity-name" x="136" y="253" text-anchor="middle">Order</text>
<line x1="40" y1="262" x2="232" y2="262" stroke="#333" stroke-width="1" />
<text class="column-text pk" x="52" y="284">◆ id: int</text>
<text class="column-text fk" x="52" y="304">  user_id: int</text>
<text class="column-text" x="52" y="324">  total: decimal</text>
<text class="column-text" x="52" y="344">  created_at: timestamp</text>
<rect class="entity-border" x="40" y="234" width="192" height="124" rx="4" />
<rect class="entity-bg" x="332" y="234" width="136" height="104" rx="4" />
<rect class="entity-header" x="332" y="234" width="136" height="28" rx="4" />
<rect class="entity-header" x="332" y="258" width="136" height="4" />
<text class="entity-name" x="400" y="253" text-anchor="middle">Product</text>
<line x1="332" y1="262" x2="468" y2="262" stroke="#333" stroke-width="1" />
<text class="column-text pk" x="344" y="284">◆ id: int</text>
<text class="column-text" x="344" y="304">  name: string</text>
<text class="column-text" x="344" y="324">  price: decimal</text>
<rect class="entity-border" x="332" y="234" width="136" height="104" rx="4" />
<rect class="entity-bg" x="40" y="468" width="144" height="144" rx="4" />
<rect class="entity-header" x="40" y="468" width="144" height="28" rx="4" />
<rect class="entity-header" x="40" y="492" width="144" height="4" />
<text class="entity-name" x="112" y="487" text-anchor="middle">OrderItem</text>
<line x1="40" y1="496" x2="184" y2="496" stroke="#333" stroke-width="1" />
<text class="column-text pk" x="52" y="518">◆ id: int</text>
<text class="column-text fk" x="52" y="538">  order_id: int</text>
<text class="column-text fk" x="52" y="558">  product_id: int</text>
<text class="column-text" x="52" y="578">  quantity: int</text>
<text class="column-text" x="52" y="598">  price: decimal</text>
<rect class="entity-border" x="40" y="468" width="144" height="144" rx="4" />
<text class="cardinality" x="111.5" y="151.5" text-anchor="end" dominant-baseline="middle">1</text>
<text class="cardinality" x="128.5" y="226.5" text-anchor="start" dominant-baseline="middle">*</text>
<text class="edge-label" x="120" y="185" text-anchor="middle" dominant-baseline="alphabetic">places</text>
<text class="cardinality" x="143.5" y="365.5" text-anchor="end" dominant-baseline="middle">1</text>
<text class="cardinality" x="92.5" y="460.5" text-anchor="start" dominant-baseline="middle">*</text>
<text class="cardinality" x="407.5" y="345.5" text-anchor="end" dominant-baseline="middle">1</text>
<text class="cardinality" x="116.5" y="460.5" text-anchor="start" dominant-baseline="middle">*</text>
</svg>
