<svg xmlns="http://www.w3.org/2000/svg" width="508" height="486" viewBox="0 0 508 486">
<style>
  .entity-bg { fill: #fff; }
  .entity-header { fill: #e0e0e0; }
  .entity-border { fill: none; stroke: #333; stroke-width: 1.5; }
  .entity-name { font-family: monospace; font-size: 14px; font-weight: bold; }
  .column-text { font-family: monospace; font-size: 12px; }
  .pk { font-weight: bold; }
  .fk { font-style: italic; }
  .edge { stroke: #666; stroke-width: 1.5; fill: none; }
  .edge-label-bg { fill: rgba(234,234,234,0.9); }
  .edge-label { font-family: monospace; font-size: 14px; fill: #444; }
  .cardinality-bg { fill: rgba(224,224,224,0.95); }
  .cardinality { font-family: monospace; font-size: 15px; font-weight: bold; fill: #222; }
</style>
<path class="edge" d="M 176 60.8 L 188.5 60.8 Q 201 60.8 201 73.3 L 201 110.7 Q 201 123.2 188.5 123.2 L 176 123.2" />
<path class="edge" d="M 104 144 L 104 302" />
<path class="edge" d="M 392 164 L 392 302" />
<path class="edge" d="M 352 164 L 352 225 Q 352 257 320 257 L 166.5 257 Q 144 257 144 279.5 L 144 302" />
<rect class="entity-bg" x="40" y="40" width="136" height="104" rx="4" />
<rect class="entity-header" x="40" y="40" width="136" height="28" rx="4" />
<rect class="entity-header" x="40" y="64" width="136" height="4" />
<text class="entity-name" x="108" y="59" text-anchor="middle">Category</text>
<line x1="40" y1="68" x2="176" y2="68" stroke="#333" stroke-width="1" />
<text class="column-text pk" x="52" y="90">◆ id: int</text>
<text class="column-text fk" x="52" y="110">  parent_id: int</text>
<text class="column-text" x="52" y="130">  name: string</text>
<rect class="entity-border" x="40" y="40" width="136" height="104" rx="4" />
<rect class="entity-bg" x="276" y="40" width="192" height="124" rx="4" />
<rect class="entity-header" x="276" y="40" width="192" height="28" rx="4" />
<rect class="entity-header" x="276" y="64" width="192" height="4" />
<text class="entity-name" x="372" y="59" text-anchor="middle">User</text>
<line x1="276" y1="68" x2="468" y2="68" stroke="#333" stroke-width="1" />
<text class="column-text pk" x="288" y="90">◆ id: int</text>
<text class="column-text" x="288" y="110">  email: string</text>
<text class="column-text" x="288" y="130">  name: string</text>
<text class="column-text" x="288" y="150">  created_at: timestamp</text>
<rect class="entity-border" x="276" y="40" width="192" height="124" rx="4" />
<rect class="entity-bg" x="40" y="302" width="168" height="144" rx="4" />
<rect class="entity-header" x="40" y="302" width="168" height="28" rx="4" />
<rect class="entity-header" x="40" y="326" width="168" height="4" />
<text class="entity-name" x="124" y="321" text-anchor="middle">Product</text>
<line x1="40" y1="330" x2="208" y2="330" stroke="#333" stroke-width="1" />
<text class="column-text pk" x="52" y="352">◆ id: int</text>
<text class="column-text fk" x="52" y="372">  category_id: int</text>
<text class="column-text" x="52" y="392">  name: string</text>
<text class="column-text" x="52" y="412">  price: decimal</text>
<text class="column-text" x="52" y="432">  is_active: boolean</text>
<rect class="entity-border" x="40" y="302" width="168" height="144" rx="4" />
<rect class="entity-bg" x="308" y="302" width="136" height="124" rx="4" />
<rect class="entity-header" x="308" y="302" width="136" height="28" rx="4" />
<rect class="entity-header" x="308" y="326" width="136" height="4" />
<text class="entity-name" x="376" y="321" text-anchor="middle">Order</text>
<line x1="308" y1="330" x2="444" y2="330" stroke="#333" stroke-width="1" />
<text class="column-text pk" x="320" y="352">◆ id: int</text>
<text class="column-text fk" x="320" y="372">  user_id: int</text>
<text class="column-text" x="320" y="392">  total: decimal</text>
<text class="column-text" x="320" y="412">  status: string</text>
<rect class="entity-border" x="308" y="302" width="136" height="124" rx="4" />
<rect class="cardinality-bg" x="196.5" y="49.3" width="17.0" height="23.0" rx="8" />
<text class="cardinality" x="205" y="60.8" text-anchor="middle" dominant-baseline="middle">1</text>
<rect class="cardinality-bg" x="196.5" y="111.7" width="17.0" height="23.0" rx="8" />
<text class="cardinality" x="205" y="123.2" text-anchor="middle" dominant-baseline="middle">✱</text>
<rect class="edge-label-bg" x="206.0" y="82.0" width="56.4" height="20.0" rx="8" />
<text class="edge-label" x="234.2" y="92" text-anchor="middle" dominant-baseline="middle">parent</text>
<rect class="cardinality-bg" x="95.5" y="144.0" width="17.0" height="23.0" rx="8" />
<text class="cardinality" x="104" y="155.5" text-anchor="middle" dominant-baseline="middle">1</text>
<rect class="cardinality-bg" x="95.5" y="279.0" width="17.0" height="23.0" rx="8" />
<text class="cardinality" x="104" y="290.5" text-anchor="middle" dominant-baseline="middle">✱</text>
<rect class="cardinality-bg" x="383.5" y="164.0" width="17.0" height="23.0" rx="8" />
<text class="cardinality" x="392" y="175.5" text-anchor="middle" dominant-baseline="middle">1</text>
<rect class="cardinality-bg" x="383.5" y="279.0" width="17.0" height="23.0" rx="8" />
<text class="cardinality" x="392" y="290.5" text-anchor="middle" dominant-baseline="middle">✱</text>
<rect class="edge-label-bg" x="363.8" y="223.0" width="56.4" height="20.0" rx="8" />
<text class="edge-label" x="392" y="233" text-anchor="middle" dominant-baseline="middle">places</text>
<rect class="cardinality-bg" x="330.0" y="164.0" width="44.0" height="23.0" rx="8" />
<text class="cardinality" x="352" y="175.5" text-anchor="middle" dominant-baseline="middle">0..1</text>
<rect class="cardinality-bg" x="122.0" y="279.0" width="44.0" height="23.0" rx="8" />
<text class="cardinality" x="144" y="290.5" text-anchor="middle" dominant-baseline="middle">1..✱</text>
<rect class="edge-label-bg" x="207.2" y="247.0" width="81.6" height="20.0" rx="8" />
<text class="edge-label" x="248" y="257" text-anchor="middle" dominant-baseline="middle">favorites</text>
</svg>
